<?xml version="1.0" standalone="no"?>
<!DOCTYPE svg PUBLIC "-//W3C//DTD SVG 20010904//EN"
 "http://www.w3.org/TR/2001/REC-SVG-20010904/DTD/svg10.dtd">
<svg version="1.0" xmlns="http://www.w3.org/2000/svg"
 width="600.000000pt" height="400.000000pt" viewBox="0 0 600.000000 400.000000"
 preserveAspectRatio="xMidYMid meet">
<g transform="translate(0.000000,400.000000) scale(0.100000,-0.100000)"
fill="#000000" stroke="none">
<path d="M5989 2638 c-5 -18 -6 -38 -1 -34 7 8 12 36 6 36 -2 0 -4 -1 -5 -2z"/>
<path d="M44 2613 c2 -10 8 -34 11 -53 9 -44 59 -155 74 -164 23 -15 9 -21
-45 -22 -43 0 -60 -4 -70 -19 -8 -10 -14 -22 -14 -26 0 -4 35 -33 78 -65 140
-103 323 -174 449 -174 35 0 58 -7 86 -26 82 -55 290 -131 422 -153 103 -17
212 -24 195 -12 -8 6 -27 11 -42 11 -15 0 -30 5 -33 10 -4 7 3 9 22 5 28 -5
28 -5 3 5 -14 6 -56 18 -95 26 -38 7 -109 24 -156 36 l-85 22 -32 57 c-47 85
-144 202 -204 247 -56 42 -157 96 -164 89 -3 -3 3 -24 12 -47 33 -83 159 -216
262 -277 64 -38 50 -49 -15 -13 -207 115 -196 107 -316 244 -200 228 -364 370
-343 299z m201 -188 c86 -91 152 -165 146 -165 -6 0 -11 5 -11 11 0 5 -5 7
-12 3 -7 -5 -8 -3 -3 6 5 9 1 11 -16 6 -13 -3 -19 -3 -12 0 7 3 -27 45 -85
104 -53 54 -98 97 -101 95 -8 -8 33 -62 91 -117 66 -64 68 -70 11 -34 -69 45
-93 67 -119 112 -33 56 -67 144 -55 144 5 0 79 -74 166 -165z m416 -247 c53
-54 95 -98 92 -98 -11 0 -121 91 -159 132 -53 55 -114 138 -114 152 1 6 19
-11 42 -39 23 -27 85 -94 139 -147z m-489 143 c91 -24 183 -69 260 -127 31
-24 65 -45 75 -47 10 -1 24 -7 32 -11 25 -16 -22 -25 -70 -15 -72 16 -170 50
-229 79 -54 28 -200 126 -200 135 0 11 61 4 132 -14z m445 -47 c67 -58 167
-180 158 -194 -3 -5 0 -13 8 -16 9 -3 13 -14 10 -27 -4 -18 -3 -20 7 -7 10 13
11 13 6 -2 -3 -10 -1 -18 5 -18 6 0 7 -5 4 -11 -5 -6 -13 -2 -22 11 -10 14
-18 18 -22 11 -5 -8 -13 -6 -27 4 -13 10 -14 13 -3 10 9 -3 22 1 29 10 9 11 9
15 1 15 -7 0 -11 6 -9 14 2 8 -46 66 -105 130 -60 64 -105 116 -101 116 4 0
31 -21 61 -46z m280 -300 c-3 -3 -12 -4 -19 -1 -8 3 -5 6 6 6 11 1 17 -2 13
-5z m230 -50 c-3 -3 -12 -4 -19 -1 -8 3 -5 6 6 6 11 1 17 -2 13 -5z"/>
<path d="M190 2272 c0 -20 173 -105 280 -138 86 -26 59 -8 -55 38 -44 17 -108
49 -143 70 -62 38 -82 45 -82 30z"/>
<path d="M5900 2603 c-77 -58 -370 -367 -370 -390 0 -11 -74 -58 -189 -119
-66 -35 -96 -56 -95 -67 2 -20 -1 -21 -29 -5 -20 10 -21 10 -7 -6 13 -16 12
-18 -5 -15 -11 2 -27 -1 -35 -6 -13 -8 -13 -7 0 11 28 37 53 58 72 59 59 5
246 183 291 279 15 32 26 61 23 63 -2 3 -37 -12 -78 -33 -90 -48 -185 -140
-255 -249 -29 -44 -58 -88 -65 -97 -12 -16 -118 -46 -269 -77 -31 -7 -65 -19
-75 -27 -11 -9 -13 -12 -5 -8 21 11 83 12 72 1 -5 -5 -36 -9 -69 -10 -34 -1
-56 -5 -49 -10 7 -4 46 -5 87 -2 179 15 390 81 529 165 36 22 63 29 127 34 88
7 185 36 279 84 64 32 215 138 215 151 0 4 -6 15 -13 25 -10 14 -28 19 -70 20
-31 0 -57 2 -57 4 0 2 11 20 25 40 21 31 44 92 72 195 6 25 -16 21 -57 -10z
m15 -45 c-19 -84 -84 -176 -149 -210 -39 -21 -45 -23 -63 -27 -5 -1 -1 -6 7
-11 12 -7 10 -9 -7 -7 -21 1 -21 2 -6 19 9 10 12 18 7 18 -6 0 -31 -22 -57
-49 -25 -28 -56 -55 -69 -61 -21 -10 -21 -10 -6 3 10 8 15 17 11 20 -3 4 -1 7
6 7 7 0 45 35 84 78 99 106 240 252 245 252 2 0 0 -15 -3 -32z m-416 -230
c-72 -105 -222 -246 -261 -245 -10 0 -18 3 -18 6 1 26 212 242 224 230 2 -2
-43 -52 -100 -111 -57 -59 -104 -110 -104 -114 0 -21 137 112 229 224 48 57
67 63 30 10z m345 33 c3 -5 -3 -11 -15 -14 -16 -4 -18 -3 -8 9 13 16 16 17 23
5z m86 -51 c-68 -56 -191 -123 -287 -156 -95 -32 -209 -51 -197 -33 3 5 12 9
20 9 8 0 13 4 10 8 -2 4 4 9 15 9 10 1 46 22 79 48 32 25 82 57 110 72 66 34
194 72 245 72 l40 0 -35 -29z m-875 -360 c-27 -12 -43 -12 -25 0 8 5 22 9 30
9 10 0 8 -3 -5 -9z"/>
<path d="M5776 2419 c-71 -75 -81 -103 -18 -52 39 32 99 109 91 118 -3 3 -36
-27 -73 -66z"/>
<path d="M5725 2241 c-33 -21 -91 -50 -130 -64 -117 -45 -131 -65 -19 -27 75
26 173 75 210 106 45 37 7 27 -61 -15z"/>
<path d="M5606 2377 c3 -10 9 -15 12 -12 3 3 0 11 -7 18 -10 9 -11 8 -5 -6z"/>
<path d="M671 2307 c2 -2 11 -8 20 -15 12 -9 16 -9 16 1 0 7 -9 14 -20 14 -11
1 -18 1 -16 0z"/>
<path d="M946 2147 c-22 -7 -41 -17 -43 -23 -11 -33 257 -194 322 -194 9 0 13
-5 10 -11 -4 -6 -1 -9 6 -8 8 2 32 -1 54 -5 24 -4 53 -3 69 3 30 12 109 4 100
-10 -3 -5 2 -6 10 -3 8 3 23 1 33 -5 13 -6 24 -6 34 1 11 8 11 9 -3 4 -10 -3
-20 -2 -22 3 -3 4 0 8 7 8 7 0 23 3 37 7 20 6 22 5 10 -4 -13 -10 -12 -11 5
-7 11 2 41 1 65 -4 l45 -7 -50 0 c-27 1 -67 -6 -89 -15 -21 -9 -42 -15 -46
-12 -5 3 -11 -1 -13 -7 -4 -10 -8 -9 -16 2 -6 8 -11 10 -11 4 0 -17 -142 -51
-245 -60 -119 -9 -402 -7 -440 4 -62 18 92 35 380 42 154 4 281 7 283 8 19 13
-39 17 -256 20 -286 3 -363 -6 -476 -57 l-61 -28 30 -15 c69 -36 206 -61 337
-62 113 -1 124 -2 100 -14 -50 -25 -182 -117 -182 -127 0 -12 -1 -12 136 -21
68 -4 119 -2 155 6 91 21 232 94 391 203 84 57 168 112 185 121 42 21 323 46
525 46 155 0 346 -16 362 -31 6 -5 0 -9 -15 -9 -14 0 -48 -7 -75 -15 -27 -9
-94 -18 -149 -20 -165 -7 -321 -48 -478 -126 -139 -69 -317 -198 -317 -229 0
-8 24 -9 83 -5 160 13 313 46 407 89 8 3 -19 -30 -61 -73 -75 -80 -108 -126
-97 -137 9 -9 163 35 263 75 177 71 366 204 485 342 38 44 70 73 79 71 18 -5
151 -71 151 -76 0 -2 -25 -29 -56 -59 -39 -39 -55 -61 -50 -72 5 -13 19 -5 72
44 37 34 70 61 73 61 3 0 36 -27 73 -60 39 -36 69 -56 73 -50 8 12 -57 95 -86
110 -10 6 -19 15 -19 21 0 5 37 27 82 49 l81 40 35 -43 c133 -161 322 -299
517 -378 70 -28 236 -79 257 -79 23 0 0 38 -72 119 -44 50 -78 91 -75 91 3 0
18 -6 33 -14 58 -29 324 -76 433 -76 29 0 23 17 -17 53 -203 179 -497 301
-754 313 -95 4 -240 31 -240 44 0 12 225 30 375 30 212 -1 463 -23 507 -46 18
-9 80 -49 138 -89 217 -150 271 -180 376 -216 56 -19 90 -24 174 -24 125 0
180 6 180 20 0 11 -134 103 -186 129 -17 8 -35 12 -39 8 -5 -4 -5 -2 -2 4 5 8
19 9 44 3 65 -14 223 -2 334 26 144 36 151 48 52 85 -112 42 -195 52 -374 48
-92 -2 -162 0 -156 4 9 6 9 8 0 8 -6 0 -15 -4 -18 -10 -3 -5 -25 -10 -48 -10
-31 0 -38 3 -27 10 9 6 10 10 3 10 -6 0 -15 -5 -19 -11 -4 -7 -21 -9 -40 -6
-19 3 -36 1 -39 -4 -4 -5 -5 -10 -3 -10 2 -1 131 -5 288 -9 294 -8 453 -25
380 -42 -49 -11 -389 -10 -485 1 -44 6 -105 18 -135 27 -30 10 -61 16 -69 15
-8 -1 -10 2 -5 11 6 10 3 9 -10 -1 -14 -12 -17 -12 -14 -1 3 16 -47 44 -65 37
-7 -3 3 -8 21 -12 17 -4 32 -11 32 -16 0 -4 -18 -2 -41 6 -22 8 -43 14 -47 14
-24 -4 -52 2 -48 10 7 11 186 9 203 -2 8 -5 11 -3 8 6 -4 10 4 13 33 11 22 -1
48 -5 59 -8 23 -7 113 14 170 40 124 56 164 78 216 120 32 25 56 51 54 57 -2
7 -23 18 -48 25 -97 30 -260 -7 -423 -96 -39 -22 -106 -58 -148 -81 l-77 -42
-228 9 c-170 6 -213 10 -168 15 143 16 221 37 304 79 47 24 86 48 88 55 6 17
-85 33 -186 33 -157 0 -317 -38 -500 -120 -76 -34 -98 -39 -196 -45 -197 -12
-322 -42 -442 -105 l-71 -38 -86 43 c-123 61 -324 105 -490 105 -35 0 -73 11
-135 39 -182 82 -344 121 -502 121 -100 0 -192 -16 -186 -33 6 -20 140 -86
217 -106 41 -11 101 -21 133 -23 120 -6 60 -15 -144 -22 l-211 -7 -137 74
c-264 145 -393 181 -515 144z m229 -48 c74 -22 374 -159 375 -171 1 -26 -224
33 -400 104 -69 28 -146 59 -172 68 -26 9 -46 19 -43 22 12 12 176 -4 240 -23z
m3890 21 c3 -5 -1 -10 -10 -10 -8 0 -70 -23 -138 -51 -163 -68 -310 -116 -393
-127 -61 -9 -86 -8 -73 1 21 15 316 149 358 162 93 30 244 45 256 25z m-3275
-28 c0 -4 44 -13 98 -20 110 -14 312 -59 327 -74 6 -6 1 -7 -15 -4 -40 10
-390 76 -399 76 -4 0 -16 7 -27 15 -17 13 -17 14 -1 15 9 0 17 -4 17 -8z
m2439 -1 c16 -10 2 -13 -269 -66 -166 -33 -214 -37 -157 -16 43 17 258 59 335
67 47 4 69 10 60 15 -10 7 -10 9 2 9 8 0 21 -4 29 -9z m-2404 -46 c189 -45
255 -56 351 -58 45 -1 80 -5 78 -9 -2 -3 4 -4 13 -2 10 3 26 -1 36 -9 17 -12
15 -13 -20 -11 -193 14 -320 27 -383 40 -84 18 -230 69 -245 86 -7 8 -4 9 10
4 11 -4 83 -23 160 -41z m2515 36 c0 -11 -154 -66 -240 -86 -36 -8 -128 -18
-205 -21 -77 -4 -142 -10 -145 -15 -3 -4 -18 -5 -33 -2 -21 4 -25 8 -15 14 7
5 23 9 36 9 12 0 22 6 22 13 0 9 3 8 9 -2 7 -11 26 -11 110 -2 92 10 437 84
449 96 8 7 12 6 12 -4z m-3245 -49 c74 -33 150 -60 274 -98 8 -3 12 -7 9 -10
-9 -9 -143 24 -214 52 -69 27 -184 90 -184 101 0 6 -5 8 115 -45z m3911 33
c-71 -54 -250 -125 -349 -139 -45 -6 -41 10 6 19 45 9 210 71 282 105 66 31
90 37 61 15z m-3281 -182 c0 -13 -4 -22 -10 -21 -22 4 -116 -13 -168 -31 -30
-11 -140 -60 -243 -109 -176 -83 -304 -137 -304 -128 0 6 141 82 265 144 123
61 284 118 378 134 39 6 66 13 59 16 -18 6 -14 18 6 18 11 0 17 -8 17 -23z
m1566 7 c-10 -6 9 -15 60 -30 162 -48 303 -136 465 -292 50 -48 95 -85 99 -80
5 4 5 2 1 -5 -3 -6 -1 -15 6 -20 7 -4 24 -21 38 -38 14 -16 18 -24 9 -17 -9 6
-19 9 -22 5 -4 -3 -15 1 -24 10 -10 8 -72 36 -138 62 -222 85 -316 147 -480
316 -80 82 -82 101 -3 30 86 -76 428 -293 578 -365 l55 -27 -35 31 c-19 17
-82 58 -140 92 -263 155 -490 306 -490 328 0 9 22 20 30 13 2 -2 -2 -8 -9 -13z
m959 10 c8 -5 11 -12 8 -16 -4 -3 -14 1 -23 10 -18 17 -9 21 15 6z m83 -1 c7
0 3 -4 -8 -8 -15 -6 0 -12 60 -26 154 -34 275 -84 523 -217 78 -42 91 -53 80
-64 -10 -11 -32 -11 -108 -4 -121 13 -214 40 -319 96 -82 43 -255 164 -246
172 10 10 179 -57 336 -134 182 -90 270 -124 316 -124 19 0 -6 14 -77 44 -58
23 -166 72 -240 109 -161 78 -249 109 -311 111 -26 0 -45 4 -42 9 2 4 -4 8
-14 8 -17 1 -17 2 0 6 9 2 17 8 17 13 0 5 -8 7 -17 4 -15 -5 -16 -4 -3 5 8 6
21 9 28 6 8 -3 19 -5 25 -6z m-2573 -9 c0 -5 -7 -10 -16 -10 -8 0 -12 5 -9 10
3 6 10 10 16 10 5 0 9 -4 9 -10z m940 -30 c-61 -49 -265 -183 -378 -249 -68
-39 -147 -87 -177 -106 -30 -19 -55 -33 -55 -31 0 2 35 38 78 79 163 159 287
241 441 293 112 39 125 40 91 14z m-36 -89 c-160 -156 -240 -207 -461 -291
-62 -24 -113 -47 -113 -53 0 -5 -8 -3 -17 4 -15 12 -16 12 -11 -2 5 -13 0 -16
-20 -16 -23 0 -24 1 -8 12 10 8 24 22 32 32 14 17 14 17 8 0 -6 -16 0 -15 47
8 163 82 471 277 574 364 101 84 86 56 -31 -58z m-975 75 c-2 -2 -42 -33 -90
-68 -151 -113 -305 -180 -441 -193 -34 -3 -80 -8 -100 -10 -59 -8 -44 10 20
23 32 7 134 50 232 98 162 80 336 152 369 154 8 0 12 -2 10 -4z m761 -33 c-19
-8 -47 -24 -62 -35 -16 -11 -63 -28 -106 -38 -147 -36 -490 -165 -522 -197
-13 -13 -12 -14 10 -8 14 4 88 32 165 62 120 47 368 133 384 133 3 0 -12 -12
-34 -27 -22 -15 -53 -39 -69 -54 -17 -15 -64 -39 -107 -53 -106 -35 -350 -79
-363 -66 -14 14 4 29 114 92 96 55 222 112 315 144 62 21 252 62 285 62 22 0
21 -1 -10 -15z m1202 -4 c121 -25 275 -77 372 -126 101 -51 228 -125 223 -130
-3 -2 -58 18 -123 45 -153 64 -309 118 -407 142 -43 10 -85 24 -92 30 -7 6
-35 22 -62 35 -60 30 -40 31 89 4z m-2775 -29 c115 -11 368 -1 394 15 5 4 9 2
9 -2 0 -5 -24 -18 -52 -29 -71 -26 -293 -26 -423 0 -91 18 -154 42 -85 32 19
-3 90 -10 157 -16z m4419 11 c-14 -22 -193 -45 -341 -45 -133 1 -155 3 -195
23 l-45 22 70 -8 c96 -10 380 -7 435 5 60 13 82 14 76 3z m-1221 -198 c72 -28
139 -53 149 -57 47 -17 0 -13 -124 10 -190 35 -268 63 -345 126 -36 28 -65 53
-65 54 0 5 256 -84 385 -133z m-2350 -62 c-3 -6 -11 -11 -17 -11 -6 0 -6 6 2
15 14 17 26 13 15 -4z m2554 5 c11 -14 6 -15 -27 -7 -4 1 8 21 12 21 2 0 9 -6
15 -14z"/>
<path d="M5221 2044 c0 -11 3 -14 6 -6 3 7 2 16 -1 19 -3 4 -6 -2 -5 -13z"/>
<path d="M3115 1780 c-3 -6 1 -7 9 -4 18 7 21 14 7 14 -6 0 -13 -4 -16 -10z"/>
<path d="M886 1538 c3 -5 10 -6 15 -3 13 9 11 12 -6 12 -8 0 -12 -4 -9 -9z"/>
</g>
</svg>
