<?xml version="1.0" standalone="no"?>
<!DOCTYPE svg PUBLIC "-//W3C//DTD SVG 20010904//EN"
 "http://www.w3.org/TR/2001/REC-SVG-20010904/DTD/svg10.dtd">
<svg version="1.0" xmlns="http://www.w3.org/2000/svg"
 width="600.000000pt" height="600.000000pt" viewBox="0 0 600.000000 600.000000"
 preserveAspectRatio="xMidYMid meet">
<g transform="translate(0.000000,600.000000) scale(0.100000,-0.100000)"
fill="#000000" stroke="none">
<path d="M2217 5593 c-10 -16 -27 -129 -27 -176 0 -80 19 -127 76 -184 51 -51
51 -52 67 -150 9 -54 19 -129 22 -168 l6 -70 -25 53 c-14 30 -35 66 -45 81
-11 15 -30 54 -42 87 -12 32 -30 72 -40 88 -10 16 -15 34 -12 39 3 6 2 7 -4 4
-6 -4 -21 5 -34 20 -32 34 -95 63 -141 63 l-37 0 35 -77 c59 -130 113 -182
197 -188 41 -2 43 -4 85 -76 23 -41 42 -86 42 -101 0 -15 5 -30 11 -34 8 -5 9
-39 4 -118 -5 -61 -7 -151 -6 -200 l3 -90 -24 16 c-17 11 -24 27 -28 64 -7 63
-38 112 -103 165 -29 23 -65 56 -81 73 l-28 31 6 -68 c15 -153 84 -257 171
-257 15 0 39 -7 55 -16 25 -15 29 -25 39 -102 13 -94 32 -147 59 -169 24 -20
12 -16 -158 60 -259 114 -370 180 -460 272 l-55 56 1 107 c1 90 4 108 19 117
61 36 82 55 104 99 21 42 26 67 29 153 3 57 1 103 -2 103 -11 0 -81 -47 -98
-66 -38 -43 -58 -107 -58 -190 0 -44 -3 -122 -6 -172 l-7 -91 -28 44 c-17 26
-51 59 -83 80 -38 24 -60 47 -75 78 -26 54 -26 72 -1 121 80 159 60 285 -57
352 -27 15 -60 38 -74 51 -23 21 -27 22 -33 8 -3 -9 -2 -14 3 -10 16 9 48 -43
62 -98 18 -78 44 -131 83 -175 20 -22 36 -43 36 -48 0 -5 -12 -31 -25 -59 -30
-61 -32 -109 -5 -153 12 -19 17 -32 13 -30 -77 36 -127 57 -166 68 -101 27
-166 144 -176 315 -6 85 -11 108 -34 148 -30 51 -73 88 -130 112 -39 16 -43
14 -27 -15 5 -10 17 -52 25 -92 23 -111 57 -172 109 -197 37 -19 44 -28 60
-76 9 -30 30 -80 47 -111 16 -31 23 -54 16 -51 -7 3 -47 15 -90 26 -74 21
-172 59 -249 96 -28 14 -35 22 -27 31 7 8 6 14 -2 20 -7 4 -9 3 -5 -4 3 -6 2
-13 -4 -17 -14 -8 -150 67 -150 83 0 22 -37 86 -66 116 -41 41 -96 65 -181 82
-115 22 -116 22 -98 -23 9 -21 27 -54 40 -74 18 -29 21 -39 12 -50 -10 -11 -9
-11 4 -1 13 10 19 9 30 -5 23 -27 89 -51 179 -64 68 -9 102 -21 169 -57 46
-25 116 -60 157 -77 l73 -32 -36 -17 c-20 -9 -61 -37 -92 -61 -31 -24 -80 -57
-110 -73 l-53 -30 -43 19 c-38 17 -63 19 -204 15 -89 -2 -164 -5 -166 -8 -2
-2 11 -4 29 -5 23 -1 54 -15 94 -43 46 -33 72 -44 111 -48 70 -6 116 4 154 36
17 15 50 36 72 46 22 10 72 42 110 71 98 75 132 88 193 74 205 -49 375 -112
490 -182 70 -42 66 -51 -7 -14 -73 36 -153 39 -227 9 -27 -12 -74 -28 -104
-36 -97 -28 -191 -117 -209 -198 -5 -18 -11 -44 -16 -57 -7 -22 -4 -21 29 11
36 35 86 61 138 72 57 13 118 86 118 144 0 26 6 32 49 51 74 31 143 28 220
-10 34 -17 68 -40 76 -52 9 -12 35 -52 58 -88 l43 -66 -31 -12 c-17 -6 -54
-11 -81 -11 -60 0 -94 -21 -140 -86 -34 -48 -77 -161 -67 -178 3 -4 8 -4 12 1
3 5 32 22 64 38 104 53 177 130 177 187 0 18 9 27 44 39 35 13 46 13 50 4 6
-16 151 -113 225 -152 l55 -28 -49 -7 c-26 -4 -79 -17 -116 -29 -67 -22 -69
-22 -102 -4 -49 26 -115 16 -222 -32 -50 -23 -99 -43 -110 -46 -15 -3 -5 -11
40 -32 43 -21 74 -28 115 -28 67 0 110 18 175 71 62 52 163 86 255 85 53 0 79
-7 140 -36 41 -19 145 -63 230 -97 85 -34 156 -64 158 -65 6 -5 -164 2 -240
10 -111 11 -158 -4 -228 -74 l-55 -56 50 -7 c103 -13 183 -9 230 13 43 20 95
70 95 90 0 14 160 10 210 -5 111 -34 478 -213 463 -226 -14 -13 -160 -60 -187
-60 -14 0 -47 5 -73 11 -43 9 -51 15 -81 64 -35 57 -93 103 -171 132 -25 9
-50 22 -54 27 -5 6 -7 -7 -4 -30 11 -93 97 -170 205 -183 31 -4 64 -11 72 -16
8 -5 45 -12 83 -15 l68 -5 -128 -78 c-143 -86 -169 -92 -243 -54 -33 16 -46
29 -48 47 -4 37 -24 82 -47 108 -23 27 -94 66 -103 57 -12 -11 -3 -93 12 -124
16 -30 61 -61 89 -61 8 0 36 -12 63 -27 27 -14 65 -29 84 -32 l35 -7 -60 -20
c-149 -52 -167 -57 -215 -51 -75 9 -146 49 -160 91 -18 57 -48 86 -133 127
-109 53 -147 83 -147 117 0 50 -22 106 -66 173 -39 60 -51 87 -53 127 -1 6 -5
12 -10 12 -4 0 -6 -11 -3 -25 2 -14 -1 -53 -7 -86 -26 -129 34 -202 264 -320
44 -23 88 -49 99 -58 21 -19 50 -71 43 -78 -3 -3 -29 13 -59 34 -58 43 -133
78 -188 88 -42 8 -124 -17 -157 -47 -31 -28 -102 -35 -145 -13 -56 29 -139 55
-175 55 -73 0 -142 -47 -190 -130 -15 -24 -36 -53 -47 -63 -22 -20 -1 -12 24
8 8 7 60 26 115 43 84 26 107 38 143 74 l43 42 57 -29 c52 -27 90 -33 143 -22
10 1 35 15 57 31 45 31 101 42 159 31 l38 -7 -39 -19 c-22 -10 -46 -25 -55
-33 -9 -7 -29 -17 -46 -20 -16 -4 -38 -15 -48 -23 -24 -22 -39 -84 -30 -126
l8 -34 38 24 c42 27 67 73 67 127 0 28 6 38 34 55 44 27 101 27 148 -2 20 -12
69 -42 109 -67 40 -24 95 -52 123 -62 28 -9 42 -18 31 -18 -41 -1 -105 -40
-176 -108 -41 -38 -85 -73 -99 -77 -43 -13 -77 -43 -130 -116 -38 -52 -62 -75
-93 -88 l-42 -18 66 -7 c51 -6 75 -3 107 10 72 28 132 116 132 192 0 31 49 95
67 88 8 -3 11 -1 8 4 -4 6 4 20 17 30 50 44 107 70 193 90 80 18 145 41 268
94 44 19 45 16 12 -28 -13 -17 -36 -57 -49 -87 -14 -30 -40 -65 -57 -78 -30
-22 -57 -72 -93 -174 -10 -26 -21 -45 -25 -43 -4 3 -7 -4 -7 -14 0 -38 25 2
57 90 20 57 42 98 61 117 29 27 30 27 44 9 27 -37 11 -125 -33 -176 -32 -39
-73 -60 -119 -62 -19 -1 -37 -5 -40 -10 -3 -4 -9 -6 -13 -4 -4 3 -8 -1 -8 -9
0 -17 13 -20 22 -5 3 6 14 10 23 10 69 0 144 50 173 115 20 43 25 125 10 154
-11 20 19 94 69 166 41 60 65 81 125 113 69 37 68 37 55 12 -7 -13 -14 -44
-15 -69 -2 -25 -11 -63 -20 -85 -22 -51 -12 -88 34 -134 64 -63 70 -66 76 -40
19 74 6 125 -45 190 -55 69 -36 144 52 201 129 84 190 71 347 -75 31 -29 47
-48 36 -44 -11 5 -38 12 -60 16 -22 4 -53 12 -68 19 -68 27 -187 4 -239 -46
-37 -36 -35 -43 7 -30 28 8 47 7 90 -7 69 -21 115 -14 157 26 26 24 38 29 65
25 79 -13 128 -67 179 -199 25 -64 29 -86 28 -173 -1 -168 -47 -294 -181 -493
-41 -61 -78 -114 -82 -116 -3 -2 -7 26 -7 63 -2 58 -35 225 -47 238 -3 2 1 28
9 56 17 66 17 180 0 230 -16 45 -77 147 -88 147 -14 0 -60 -166 -61 -225 -2
-73 31 -138 91 -177 35 -24 40 -32 58 -109 11 -49 19 -120 19 -170 l0 -86 -69
-79 c-38 -43 -106 -119 -152 -167 l-82 -88 15 48 c9 27 16 85 16 133 0 71 -5
100 -32 175 -18 50 -32 98 -32 108 0 9 1 39 2 67 1 41 -8 68 -51 160 -45 94
-51 116 -47 155 2 25 0 45 -5 45 -4 0 -8 -8 -8 -19 0 -10 -7 -24 -16 -32 -51
-42 -72 -151 -44 -233 15 -47 91 -132 124 -140 25 -6 55 -66 81 -167 32 -120
8 -269 -66 -406 l-45 -81 -12 28 c-20 45 -59 77 -163 136 -85 48 -99 60 -113
95 -24 59 -21 103 8 122 32 21 66 95 66 143 0 46 -9 84 -20 84 -4 0 -29 -21
-56 -47 -27 -25 -51 -46 -54 -46 -12 3 -2 -95 13 -124 10 -18 17 -50 17 -73 0
-23 7 -54 15 -70 l15 -29 -57 21 c-32 12 -66 29 -77 37 -30 26 -62 81 -90 159
-22 61 -26 88 -25 170 1 113 -13 157 -69 215 -39 41 -173 117 -139 80 10 -12
27 -68 41 -135 32 -153 49 -185 120 -219 24 -12 33 -28 57 -105 16 -50 40
-108 54 -128 13 -20 23 -36 21 -36 -15 0 -223 78 -292 110 -132 61 -294 161
-294 183 0 31 -47 113 -84 144 -19 17 -59 40 -90 52 -63 23 -183 47 -192 38
-21 -20 55 -149 114 -194 45 -34 81 -47 196 -67 52 -9 86 -23 126 -50 30 -20
103 -61 162 -91 102 -51 106 -54 79 -63 -28 -10 -69 -35 -149 -92 -24 -16 -64
-41 -91 -54 l-48 -25 -64 26 c-61 24 -70 25 -186 19 -68 -3 -124 -2 -127 3 -8
12 -55 11 -63 -2 -3 -5 -1 -7 5 -3 17 10 57 -10 116 -58 91 -74 199 -82 280
-21 17 12 51 31 76 42 25 11 90 50 145 88 l99 67 61 -5 c71 -6 360 -106 420
-145 22 -14 46 -27 53 -28 7 -1 27 -11 44 -22 l32 -20 -47 0 c-58 0 -104 -27
-142 -82 -39 -57 -49 -60 -108 -38 -57 22 -141 25 -252 9 -38 -6 -74 -7 -80
-2 -5 4 -23 8 -40 9 -23 1 -26 -1 -15 -8 8 -5 22 -10 31 -10 9 0 36 -15 60
-33 75 -58 108 -71 179 -71 85 0 113 16 216 120 46 46 95 86 109 90 42 10 117
-4 142 -28 12 -11 30 -40 39 -63 16 -43 16 -43 -20 -133 -62 -155 -95 -326
-96 -494 -1 -51 -3 -59 -12 -43 -6 11 -41 52 -78 90 -37 39 -88 100 -113 137
-83 118 -165 168 -276 168 -82 0 -86 -7 -40 -68 23 -30 37 -57 33 -65 -4 -6
-4 -9 1 -5 4 4 32 -14 61 -41 74 -68 180 -100 233 -71 15 7 29 -1 73 -44 31
-29 68 -72 84 -96 25 -37 28 -51 26 -104 -8 -171 -71 -264 -229 -337 -66 -31
-84 -61 -43 -74 46 -15 232 118 260 185 18 42 79 72 160 78 81 5 134 -9 183
-49 33 -27 37 -35 32 -61 -8 -35 9 -104 34 -134 9 -12 35 -33 56 -47 22 -15
47 -32 55 -39 23 -19 60 -74 54 -80 -3 -3 1 -8 8 -11 23 -8 10 119 -17 179
-25 58 -86 124 -137 150 -18 9 -46 28 -62 41 -75 62 -165 84 -254 60 -69 -19
-56 -7 38 31 185 76 292 82 304 17 11 -56 63 -105 156 -147 47 -21 93 -43 103
-49 15 -8 17 -6 11 18 -18 73 -93 182 -145 208 -17 9 -52 15 -87 14 -31 0 -68
4 -82 9 l-25 11 25 0 c14 1 47 8 74 16 64 19 112 19 175 -2 67 -21 128 -75
157 -137 23 -50 23 -51 4 -71 -28 -30 -45 -103 -34 -150 4 -22 8 -46 7 -52 0
-7 3 -10 8 -8 15 10 42 -59 45 -115 2 -30 4 -57 4 -60 0 -6 24 33 50 85 13 28
20 60 20 105 0 78 -12 126 -44 172 -12 19 -31 55 -41 81 -9 25 -32 64 -51 85
-18 22 -30 43 -26 47 4 5 1 5 -6 1 -7 -4 -19 -3 -26 3 -8 6 -38 20 -67 30
l-53 18 42 7 c23 3 55 3 70 0 48 -12 168 -71 229 -112 l58 -39 76 8 c42 5 104
17 139 28 l64 20 34 -21 c47 -29 115 -21 220 25 46 20 92 37 102 37 68 0 -53
62 -131 68 -72 5 -131 -15 -190 -64 -53 -44 -154 -74 -249 -74 -67 0 -78 3
-134 38 -83 53 -208 112 -237 113 -18 0 -9 8 38 32 34 18 97 57 140 88 l79 57
70 -5 c65 -5 72 -4 102 22 18 15 51 64 74 109 22 44 48 90 57 100 16 18 14 19
-39 12 -70 -8 -189 -66 -228 -110 -17 -20 -33 -52 -37 -75 -5 -33 -15 -47 -60
-80 -30 -23 -56 -41 -59 -41 -2 0 3 19 12 41 15 39 15 44 -6 103 -28 79 -28
88 7 114 44 33 79 83 116 167 18 42 45 89 59 106 32 35 34 50 4 22 -13 -11
-51 -33 -86 -48 -140 -62 -184 -192 -118 -350 29 -69 17 -134 -36 -181 -35
-32 -201 -114 -230 -114 -24 0 2 24 42 39 54 20 85 62 101 139 10 52 7 139 -7
177 -5 12 -22 -6 -69 -68 -72 -98 -94 -160 -78 -218 15 -57 -9 -75 -153 -110
-64 -16 -119 -29 -121 -29 -8 0 81 103 159 185 42 44 86 100 97 125 24 52 27
124 8 169 l-14 32 -71 -76 c-40 -41 -72 -80 -72 -86 0 -5 -4 -8 -9 -5 -5 3 -8
0 -8 -7 1 -6 -3 -34 -7 -60 -6 -32 -5 -62 3 -88 11 -37 10 -42 -18 -83 -47
-67 -114 -121 -183 -146 -35 -12 -79 -32 -99 -45 l-36 -23 13 38 c8 23 14 92
15 179 l1 141 30 34 c26 29 35 34 62 29 55 -9 109 14 183 76 39 33 75 57 79
53 4 -4 4 -2 1 4 -9 16 19 38 35 28 10 -5 10 -4 2 5 -19 21 -163 15 -228 -9
-61 -23 -90 -53 -106 -109 -6 -20 -22 -49 -36 -66 -25 -30 -25 -30 -20 -5 3
14 8 54 11 89 9 87 46 232 85 325 35 84 61 106 125 106 64 0 125 -45 125 -92
0 -62 46 -135 104 -165 39 -20 49 -4 41 66 -7 70 -39 113 -95 130 -22 7 -61
26 -86 44 -37 26 -54 31 -99 31 -30 0 -55 2 -55 4 0 2 15 27 34 55 70 105 153
161 240 161 78 1 99 -8 117 -53 25 -58 81 -92 166 -99 56 -4 102 -18 165 -50
5 -2 -6 21 -24 52 -53 92 -172 158 -282 156 -28 0 -77 2 -109 6 -64 7 -134
-12 -174 -49 -13 -11 -26 -18 -29 -14 -4 3 31 44 77 90 71 70 100 91 189 135
58 28 132 56 165 63 73 15 99 4 171 -69 48 -48 48 -50 49 -113 0 -81 33 -141
108 -200 29 -22 62 -49 74 -59 21 -18 21 -18 27 3 9 34 6 99 -7 134 -17 46
-80 118 -137 156 -41 28 -170 142 -170 151 0 2 30 2 68 1 161 -3 353 -161 351
-290 0 -87 -14 -123 -63 -166 -25 -22 -46 -46 -46 -51 0 -6 16 5 35 25 41 43
63 49 39 11 -18 -27 -67 -57 -78 -47 -9 9 -45 -78 -55 -134 -5 -26 -8 -49 -6
-51 6 -6 61 26 94 54 51 43 69 90 81 211 5 59 10 117 11 128 0 11 9 -4 20 -34
10 -29 16 -57 14 -61 -3 -5 -2 -10 2 -12 5 -1 19 -34 32 -73 13 -38 32 -87 43
-107 21 -44 23 -111 4 -190 -10 -45 -22 -66 -58 -100 -48 -48 -74 -115 -62
-166 6 -24 72 -132 81 -132 2 0 1 16 -3 35 -4 24 1 56 20 109 27 79 34 128 22
163 -4 13 0 45 8 74 9 29 16 73 16 98 l0 46 22 -35 c12 -19 55 -73 96 -119 71
-80 123 -169 123 -208 0 -10 -5 -40 -12 -67 -9 -38 -9 -62 0 -101 14 -61 68
-151 109 -182 l29 -22 -4 117 c-6 144 -14 173 -64 215 -23 20 -45 51 -54 77
-8 23 -24 58 -36 76 l-20 33 61 -42 c33 -23 74 -49 91 -59 62 -34 91 -72 103
-139 5 -28 2 -39 -14 -54 -38 -34 -52 -133 -25 -184 8 -16 11 -31 8 -35 -4 -3
-2 -6 4 -6 15 0 72 67 84 97 15 41 10 82 -16 121 -14 20 -25 45 -25 55 0 26
-28 89 -51 113 -19 20 -15 20 62 -7 64 -23 94 -41 140 -83 70 -65 129 -95 209
-106 61 -9 130 -4 130 9 0 19 -145 162 -183 180 -54 26 -121 27 -171 2 l-38
-20 -100 35 c-104 36 -159 66 -192 103 -13 14 -22 18 -26 11 -4 -7 -37 17 -81
59 l-74 70 44 -15 c61 -21 110 -8 194 49 l68 47 37 -30 c59 -47 123 -69 244
-86 62 -9 120 -21 128 -27 30 -24 59 -36 64 -28 3 4 -13 18 -34 30 -22 12 -40
25 -40 29 0 4 -21 32 -47 61 -92 105 -208 129 -333 70 -36 -17 -78 -41 -95
-53 -81 -61 -141 -71 -215 -34 -54 28 -100 98 -132 203 -12 38 -27 76 -35 83
-32 33 -10 25 43 -14 73 -55 170 -70 261 -41 27 9 74 21 105 27 99 19 204 111
224 195 4 17 11 36 17 43 6 8 6 12 -1 12 -6 0 -14 -5 -17 -10 -15 -24 -87 -60
-145 -73 -75 -18 -126 -62 -143 -124 -9 -36 -17 -45 -49 -58 -127 -50 -291 31
-337 167 -12 34 -21 72 -21 85 0 13 -4 23 -9 23 -4 0 -22 22 -39 49 l-30 49
33 -14 c18 -7 55 -18 82 -24 26 -6 79 -24 117 -42 94 -42 183 -49 248 -19 43
21 86 57 77 65 -17 14 -188 66 -218 66 -51 0 -100 -18 -133 -48 l-27 -24 -71
17 c-39 9 -86 28 -106 41 -19 13 -37 24 -40 24 -2 0 -22 13 -43 28 -21 15 -64
36 -95 47 -31 11 -56 22 -56 26 0 3 12 9 28 12 15 3 56 24 91 47 35 22 65 39
68 36 3 -2 20 6 39 19 32 22 148 55 191 55 11 0 46 7 78 16 56 15 91 18 139
10 11 -1 39 1 63 5 50 10 193 67 193 78 0 12 -140 51 -180 51 -42 0 -78 -22
-125 -77 -38 -44 -52 -50 -219 -78 -49 -8 -107 -23 -128 -34 -21 -10 -38 -16
-38 -14 0 3 12 20 28 38 15 18 35 42 45 54 9 12 37 63 61 114 48 100 94 151
180 202 41 24 61 29 121 29 61 1 78 5 120 31 56 35 85 83 90 150 2 26 9 53 16
61 8 10 9 14 0 14 -6 0 -21 -15 -31 -33 -21 -36 -64 -62 -82 -51 -6 4 -8 3 -5
-3 3 -5 -21 -22 -53 -37 -33 -16 -70 -41 -83 -58 -37 -49 -62 -71 -121 -108
-54 -33 -106 -82 -133 -126 -10 -17 -12 -14 -12 20 -1 21 -18 80 -39 130 -56
133 -55 124 -27 158 30 35 34 105 9 144 -9 13 -19 50 -23 82 l-6 57 -29 -37
c-42 -56 -48 -147 -14 -220 36 -77 107 -263 114 -297 10 -48 -14 -124 -66
-209 -59 -95 -111 -144 -197 -184 -56 -27 -79 -31 -166 -34 -148 -6 -267 -40
-375 -108 -23 -14 -42 -25 -42 -23 0 2 21 26 46 53 68 73 190 238 241 327 25
42 51 77 59 77 8 0 14 9 14 20 0 32 27 77 62 104 47 35 80 41 119 20 47 -24
117 -20 175 9 l47 24 -31 22 c-82 58 -136 60 -199 6 -21 -18 -49 -35 -63 -40
-14 -4 -42 -20 -62 -36 l-37 -29 14 40 c8 22 19 68 25 103 13 72 38 119 110
202 28 33 63 79 78 102 15 23 40 47 55 54 15 6 43 30 62 52 41 47 113 183 103
193 -13 12 -135 -47 -169 -82 -30 -31 -33 -41 -38 -112 -7 -85 -6 -84 -129
-232 -20 -25 -45 -57 -55 -70 -10 -14 -15 -19 -12 -12 9 17 -14 150 -31 184
-21 40 -17 78 12 136 21 43 30 52 52 52 64 0 146 68 167 139 7 24 7 24 -53 19
-33 -3 -71 -13 -85 -23 -28 -18 -57 -71 -57 -104 0 -11 -11 -37 -25 -57 -13
-20 -27 -52 -31 -71 -6 -31 -8 -33 -17 -17 -5 11 -27 42 -48 70 -50 65 -50 95
-3 165 73 110 174 176 282 186 58 5 60 5 118 -39 80 -61 132 -80 234 -84 l85
-3 -76 9 c-104 12 -186 43 -229 85 -19 19 -29 35 -21 35 7 0 26 -13 41 -30 15
-16 31 -30 36 -30 4 0 -1 9 -11 20 -25 27 -10 25 75 -10 40 -17 75 -28 78 -25
8 7 3 10 -58 33 -51 19 -52 21 -22 21 17 1 32 6 32 12 0 7 -11 8 -31 4 -37 -8
-119 2 -119 16 0 5 32 9 70 9 105 0 173 -40 242 -140 9 -14 17 -20 17 -13 1
19 -62 96 -99 121 -18 12 -59 30 -89 39 -47 13 -65 14 -116 4 -33 -7 -91 -14
-130 -17 -39 -3 -95 -15 -129 -29 l-59 -24 40 42 c22 23 62 69 88 102 67 84
192 201 241 225 23 11 75 28 118 37 76 17 76 17 118 -7 64 -36 154 -34 210 6
23 16 52 49 65 73 12 24 28 50 34 57 8 10 8 14 1 14 -6 0 -14 -5 -17 -11 -12
-19 -59 -31 -152 -40 -91 -8 -137 -23 -162 -53 -8 -9 -25 -16 -38 -16 -38 0
-142 -29 -187 -52 -22 -11 -63 -43 -93 -71 -29 -27 -53 -48 -53 -45 0 3 13 32
30 64 22 45 30 73 30 115 0 31 7 76 16 100 9 25 20 106 25 189 8 120 13 149
30 170 74 94 79 103 79 148 0 48 -56 186 -71 176 -14 -8 -50 -141 -54 -197 -2
-29 3 -70 10 -91 8 -22 11 -44 8 -49 -3 -4 -9 -70 -14 -146 -8 -140 -30 -228
-45 -186 -4 11 -27 68 -50 127 -24 59 -44 115 -44 125 0 22 -50 109 -82 143
-17 18 -23 37 -23 70 0 34 -7 54 -28 81 -15 20 -24 39 -19 43 4 4 2 7 -3 6
-22 -5 -27 1 -14 18 13 15 12 16 -2 4 -15 -11 -21 -8 -47 24 l-30 37 -7 -46
c-12 -81 29 -158 105 -197 51 -26 109 -108 137 -193 13 -39 23 -73 23 -74 0
-2 -13 3 -28 11 -15 8 -56 20 -91 26 -35 6 -87 20 -116 31 -47 17 -53 24 -74
73 -20 49 -47 81 -157 184 -8 7 -17 24 -20 38 -3 13 -10 24 -15 24 -13 0 -11
-12 6 -34 9 -12 15 -42 15 -73 0 -56 17 -101 54 -141 25 -29 68 -52 94 -52 11
0 44 -11 73 -24 30 -13 86 -29 124 -36 114 -20 133 -33 171 -114 79 -172 70
-247 -46 -420 -72 -107 -76 -108 -72 -20 5 104 -15 158 -81 222 -29 27 -65 66
-80 86 -35 45 -117 93 -182 105 -53 11 -171 -8 -147 -23 7 -4 12 -5 12 -1 0
16 82 -40 129 -89 45 -45 64 -57 107 -67 43 -10 57 -9 82 4 31 15 31 15 76
-30 70 -68 91 -161 63 -275 -10 -37 -27 -63 -88 -126 l-76 -79 5 47 c5 55 -10
108 -47 165 -14 22 -26 49 -28 60 -6 46 -26 101 -42 121 -32 40 -95 64 -165
64 l-64 0 15 -40 c35 -88 140 -170 220 -170 29 0 34 -6 62 -62 48 -95 42 -167
-23 -262 -14 -21 -26 -47 -26 -57 0 -25 -4 -24 -37 7 -30 29 -162 128 -178
135 -5 2 -45 23 -87 47 -81 45 -108 78 -158 187 -21 47 -21 49 -5 102 26 82
17 199 -21 283 l-30 65 -28 -58 c-42 -85 -46 -168 -12 -242 14 -32 29 -56 32
-52 3 3 -5 25 -17 49 -32 60 -32 154 0 223 l23 50 23 -51 c27 -59 43 -144 27
-144 -5 0 -16 -16 -24 -35 -14 -35 -14 -33 -14 51 1 59 -3 89 -11 91 -9 3 -10
-4 -2 -29 5 -18 9 -51 9 -73 l-1 -40 -15 34 c-8 19 -17 32 -20 28 -3 -3 2 -19
10 -36 9 -17 18 -57 21 -88 3 -44 16 -82 53 -155 26 -54 47 -98 46 -98 -1 0
-44 20 -95 43 -52 24 -159 70 -239 103 -88 35 -158 70 -178 89 l-33 30 21 90
c25 108 49 151 126 228 52 50 63 57 99 57 50 0 108 33 149 83 29 37 31 44 32
128 1 49 -3 86 -7 83 -5 -3 -9 -12 -9 -20 0 -27 -30 -62 -100 -113 -64 -48
-110 -102 -110 -131 0 -7 -31 -46 -70 -86 -81 -86 -101 -122 -126 -228 l-18
-79 -14 32 c-16 41 -42 209 -42 278 0 56 34 142 95 244 31 50 39 57 76 63 94
15 215 106 281 210 18 28 37 55 43 59 5 5 -21 6 -60 3 -85 -7 -178 -49 -224
-102 -31 -35 -91 -144 -91 -164 0 -6 -11 -26 -24 -43 -13 -18 -33 -50 -44 -72
-47 -91 -47 -91 -47 122 0 150 -5 222 -19 296 -16 87 -16 104 -5 145 8 26 14
83 14 127 0 91 -12 121 -77 191 -40 44 -53 51 -61 37z m109 -123 c25 -47 24
-171 -2 -225 l-18 -38 -43 47 c-45 51 -63 96 -63 163 0 37 14 125 25 161 5 15
75 -59 101 -108z m-1193 -170 c36 -42 57 -103 57 -162 l-1 -33 -14 34 c-8 18
-15 54 -16 80 -1 38 -2 42 -9 21 -4 -14 -8 -18 -9 -9 -1 19 -49 69 -65 69 -6
0 1 -10 17 -21 33 -25 35 -43 5 -34 -19 5 -18 3 4 -10 48 -27 65 -80 23 -69
-14 3 -25 2 -25 -4 0 -5 6 -10 13 -9 35 1 46 -6 56 -35 6 -17 10 -32 9 -34 -2
-1 -17 4 -35 11 -41 17 -66 66 -96 188 l-23 96 37 -19 c20 -11 53 -38 72 -60z
m-526 -72 c33 -16 59 -40 81 -73 46 -69 41 -81 -36 -78 -71 3 -113 18 -160 58
-28 24 -92 118 -92 136 0 13 161 -20 207 -43z m872 18 c51 -33 89 -80 97 -121
7 -38 -2 -105 -15 -105 -24 0 -67 69 -97 155 -17 52 -30 95 -28 95 3 0 22 -11
43 -24z m636 -11 c57 -33 112 -113 120 -176 3 -25 0 -29 -20 -29 -81 0 -139
60 -199 204 l-16 38 38 -7 c20 -3 55 -17 77 -30z m-235 -257 c-6 -116 -22
-157 -80 -196 -42 -28 -50 -19 -50 64 0 86 23 145 76 193 24 23 47 41 51 41 5
0 6 -46 3 -102z m2110 -71 c0 -38 -22 -87 -54 -116 -30 -28 -37 -25 -45 26 -8
44 1 110 24 191 l17 56 29 -65 c15 -35 29 -77 29 -92z m-1182 102 c-55 -98
-215 -217 -278 -207 -36 5 56 58 102 58 21 0 38 5 38 10 0 12 -16 13 -58 1
-17 -5 -32 -8 -32 -6 0 2 24 17 53 33 64 37 124 88 115 97 -4 4 -23 -9 -42
-29 -37 -36 -96 -73 -96 -59 0 4 -22 -15 -50 -42 -55 -54 -60 -53 -30 5 46 91
115 143 220 166 84 19 84 19 58 -27z m808 -91 c25 -49 14 -89 -15 -54 -9 11
-10 20 -1 35 7 14 7 21 0 21 -5 0 -10 -7 -10 -16 0 -14 -3 -14 -16 -3 -9 7
-14 22 -11 36 2 13 0 26 -4 29 -5 3 -10 -4 -10 -15 -1 -12 -2 -27 -3 -33 -1
-7 11 -24 27 -37 40 -34 25 -38 -18 -5 -26 20 -33 29 -23 35 10 7 9 9 -3 9
-19 0 -43 78 -33 105 6 13 16 8 56 -32 27 -26 56 -60 64 -75z m-212 -157 c13
-20 28 -49 32 -66 7 -27 6 -29 -9 -17 -9 7 -19 27 -22 43 -4 16 -11 29 -16 29
-12 0 -12 -17 1 -25 6 -3 10 -12 10 -18 -1 -7 -12 1 -25 18 -16 20 -23 38 -19
55 4 22 3 22 -5 5 -9 -18 -10 -17 -22 13 -8 17 -17 32 -21 32 -12 0 -10 -18 3
-26 6 -3 8 -18 5 -33 -3 -14 -3 -20 0 -13 5 10 9 10 20 1 20 -17 17 -34 -3
-18 -15 12 -15 10 1 -8 10 -12 21 -21 25 -20 9 2 62 -35 57 -41 -3 -2 -25 7
-49 21 -51 30 -87 94 -87 152 l0 36 49 -41 c27 -23 61 -58 75 -79z m-559 -78
c-11 -63 -107 -143 -170 -142 -19 0 -19 0 -2 13 10 8 26 13 35 11 9 -1 11 0 4
2 -7 3 -10 9 -6 14 3 5 10 7 15 3 11 -6 93 46 85 53 -3 3 -20 -7 -39 -21 -36
-28 -56 -34 -38 -13 6 8 9 17 6 20 -3 4 -2 5 2 2 8 -6 73 55 73 69 0 5 -16 -8
-35 -30 -29 -33 -34 -36 -35 -19 -1 15 -5 13 -16 -12 -14 -33 -43 -60 -31 -30
4 10 2 17 -4 17 -6 0 -9 -8 -7 -18 3 -10 -4 -24 -18 -35 l-23 -17 11 30 c5 17
31 47 56 68 25 20 66 57 91 82 l46 45 3 -29 c2 -16 1 -45 -3 -63z m-2125 37
l25 -14 -25 -7 c-14 -4 -44 -7 -67 -8 -33 -1 -45 3 -53 20 -7 11 -14 18 -17
15 -3 -3 0 -13 8 -22 13 -16 12 -17 -8 -11 -64 19 -68 20 -57 8 14 -15 133
-29 169 -19 43 11 44 1 2 -17 -41 -17 -87 -20 -87 -5 0 6 -10 10 -22 9 -22 0
-22 -1 -3 -9 11 -5 15 -9 8 -9 -20 -1 -66 19 -107 47 l-40 27 55 6 c80 10 191
4 219 -11z m1483 -113 c-3 -5 -2 -7 4 -4 24 15 83 -82 83 -135 l-1 -33 -30 33
c-23 26 -30 42 -27 67 1 19 -1 37 -5 41 -4 4 -7 -10 -8 -32 l0 -39 -30 59
c-16 33 -29 66 -29 73 0 7 -4 13 -10 13 -13 0 -13 0 14 -63 14 -30 22 -57 20
-60 -3 -3 6 -13 20 -22 14 -10 24 -21 21 -25 -2 -4 7 -13 20 -20 35 -19 31
-30 -7 -20 -31 9 -98 72 -98 92 0 5 9 6 20 3 30 -9 24 2 -9 20 -25 12 -31 23
-36 62 -4 27 -9 56 -12 67 -4 13 10 7 51 -24 31 -23 53 -47 49 -53z m-942 -7
c-23 -22 -57 -44 -74 -50 -29 -9 -29 -9 -4 -6 22 3 25 1 16 -10 -6 -7 -19 -16
-30 -19 -10 -4 -19 -11 -19 -16 0 -19 21 -8 62 33 32 32 40 36 36 20 -4 -12
-1 -25 4 -28 7 -5 9 4 6 23 -3 23 3 37 29 64 l33 34 0 -26 c0 -14 -13 -45 -28
-70 -26 -39 -37 -47 -92 -64 -34 -10 -79 -31 -100 -46 l-38 -28 8 28 c24 85
104 165 190 192 45 13 45 10 1 -31z m2115 -171 c52 -20 134 -80 134 -100 0
-16 -105 38 -115 59 -5 12 -13 22 -17 22 -12 0 -10 -14 4 -28 20 -20 -7 -14
-36 9 -14 11 -26 16 -26 10 0 -14 60 -51 83 -51 9 0 17 -4 17 -9 0 -5 -8 -12
-17 -14 -14 -4 -12 -5 5 -6 12 0 22 3 22 9 0 9 10 7 63 -12 36 -14 18 -28 -35
-28 -56 0 -85 15 -141 73 -29 29 -63 61 -77 70 -25 16 -25 16 27 16 30 1 76
-8 109 -20z m-1680 -24 c11 -27 -42 -125 -67 -125 -27 0 3 92 36 110 14 7 23
15 21 17 -5 6 -56 -19 -56 -28 0 -4 -6 -9 -12 -12 -7 -3 -30 -13 -51 -21 -37
-16 -38 -16 -27 3 28 54 142 94 156 56z m2750 -72 c-19 -36 -54 -69 -89 -82
-37 -14 -120 -14 -151 0 -80 37 9 87 154 89 30 0 62 5 70 10 26 17 31 11 16
-17z m-2832 -24 c-1 -37 -6 -44 -45 -68 -24 -15 -57 -32 -72 -39 -27 -12 -28
-11 -22 10 23 75 43 106 76 114 19 4 37 8 41 8 3 1 10 4 14 9 4 4 8 7 9 7 1 0
0 -19 -1 -41z m1307 -155 c-17 -73 -36 -84 -28 -16 6 51 29 102 36 81 2 -7 -2
-36 -8 -65z m-1110 47 l24 -19 -39 -7 c-32 -6 -42 -4 -52 10 -8 10 -17 15 -21
11 -4 -4 0 -12 10 -17 43 -25 -10 -47 -57 -24 -34 17 -36 18 -36 6 0 -4 17
-16 38 -24 20 -9 28 -15 17 -13 -71 14 -99 16 -85 7 8 -6 30 -11 48 -11 20 0
31 -4 27 -10 -10 -17 7 -11 29 9 12 11 39 26 60 35 l39 16 -19 -21 c-53 -58
-168 -77 -249 -40 l-40 18 50 23 c166 76 213 86 256 51z m1514 -11 c40 -25 56
-49 65 -103 7 -35 6 -37 -10 -22 -9 8 -16 26 -15 38 1 14 1 15 -2 4 -4 -18 -6
-18 -24 -1 -10 9 -19 22 -19 29 0 6 -7 20 -16 31 -16 20 -16 13 3 -33 4 -10
-13 -1 -40 21 -26 21 -47 34 -47 29 0 -5 18 -22 41 -39 22 -16 50 -37 62 -47
22 -17 22 -17 -6 -7 -35 12 -60 13 -53 1 3 -4 24 -11 47 -14 24 -3 51 -15 63
-27 l21 -21 -30 6 c-77 17 -149 59 -140 83 2 7 1 11 -4 8 -12 -8 -27 12 -47
59 l-15 38 65 -5 c42 -4 77 -13 101 -28z m-951 -156 c27 -4 50 -13 53 -21 7
-17 -31 -59 -72 -80 -41 -22 -245 -23 -245 -2 0 18 75 80 92 76 9 -3 16 0 15
6 -4 21 78 31 157 21z m-417 -198 c3 -38 2 -47 -6 -36 -6 8 -11 27 -11 43 0
15 -4 27 -8 27 -10 0 -8 -42 2 -59 13 -20 3 -21 -21 -2 -40 33 -63 83 -63 138
0 89 8 90 58 12 35 -55 46 -83 49 -123z m669 73 c60 -26 123 -77 146 -117 16
-27 16 -30 2 -36 -22 -8 -93 12 -126 35 -34 25 -67 70 -78 109 -10 36 -7 36
56 9z m-173 -150 c62 -32 116 -121 86 -140 -19 -12 -52 -11 -44 0 3 5 1 12 -5
16 -5 3 -10 0 -10 -7 0 -7 -12 -1 -26 14 -20 19 -28 40 -32 77 -5 54 -3 57 31
40z m1307 -42 c0 -8 -13 -32 -29 -54 -33 -45 -113 -85 -133 -65 -13 13 6 73
31 96 35 32 131 48 131 23z m175 -77 c-36 -71 -84 -133 -116 -151 -15 -8 -17
-6 -13 6 4 9 18 22 33 30 15 8 20 14 11 15 -9 0 -21 -3 -26 -7 -6 -5 8 9 29
30 38 36 43 54 5 20 -10 -9 -18 -12 -18 -7 0 16 15 33 50 59 19 14 28 25 20
25 -8 0 -27 -12 -42 -27 -15 -15 -28 -21 -28 -15 0 7 -4 12 -9 12 -4 0 -6 -10
-4 -22 2 -13 -7 -48 -22 -78 l-25 -55 3 57 c5 77 25 104 110 144 40 18 73 33
75 34 1 0 -14 -31 -33 -70z m-2380 0 c4 -6 11 -8 16 -5 17 11 9 -15 -10 -34
-35 -35 -67 -51 -150 -75 l-81 -24 22 37 c33 56 47 69 75 69 25 0 25 -1 -13
-34 -21 -18 -35 -33 -30 -34 6 0 23 12 39 28 28 25 29 26 23 5 -5 -14 -3 -23
3 -23 6 0 11 8 11 18 0 23 26 47 60 56 l25 7 -22 -20 c-33 -28 -28 -35 7 -9
26 18 28 23 15 31 -10 5 -28 4 -45 -1 -15 -6 -32 -7 -36 -4 -4 4 -4 2 -1 -4 5
-8 -2 -11 -17 -10 -31 1 -23 13 17 25 44 13 85 13 92 1z m1699 -39 c16 -6 12
-9 -21 -18 -23 -6 -47 -7 -55 -2 -7 5 -20 9 -28 8 -9 0 -5 -6 10 -14 30 -17 6
-21 -36 -5 -24 10 -26 9 -14 -6 14 -16 51 -16 95 0 20 8 20 7 1 -8 -11 -9 -16
-16 -12 -16 4 0 19 9 33 20 14 11 35 20 46 20 19 0 19 -1 2 -20 -31 -34 -79
-44 -132 -26 -26 9 -60 16 -77 16 -27 0 -29 1 -15 16 36 35 151 55 203 35z
m-1304 -80 c0 -32 -34 -87 -67 -109 -23 -14 -23 -14 -23 40 0 44 4 59 23 75
43 40 67 37 67 -6z m979 -83 c1 -16 5 -28 10 -28 5 0 12 -13 16 -30 4 -16 11
-30 15 -30 5 0 0 21 -11 46 -20 48 -20 73 1 34 6 -12 14 -19 17 -16 3 3 -6 19
-21 36 -31 38 -35 61 -5 34 31 -27 49 -76 49 -129 0 -55 -14 -58 -58 -12 -38
39 -59 97 -36 97 8 0 14 8 14 18 0 14 -2 15 -10 2 -11 -17 -13 0 -3 26 6 16 7
16 14 -2 4 -10 8 -31 8 -46z m1022 -51 c31 -52 18 -152 -20 -145 -45 9 -61
150 -26 223 l20 40 3 -43 c2 -24 12 -58 23 -75z m-738 -162 c29 -55 32 -67 31
-150 0 -49 -6 -103 -12 -118 l-12 -29 -33 20 c-76 48 -95 143 -56 276 31 106
26 106 82 1z m1296 26 c-14 -62 -44 -100 -103 -127 -57 -27 -94 -30 -120 -11
-17 12 -16 15 8 44 15 18 63 49 109 71 45 21 88 47 96 56 19 23 21 17 10 -33z
m-2382 -34 c-12 -12 -31 -21 -42 -20 l-20 3 20 -9 c18 -9 17 -10 -12 -22 -34
-14 -47 -33 -15 -23 9 3 0 -11 -21 -31 -21 -20 -37 -39 -34 -41 5 -5 117 109
130 131 15 28 25 15 17 -21 -9 -40 -50 -103 -78 -121 -34 -21 -99 -34 -123
-25 -23 9 -23 9 -2 20 11 6 37 35 56 64 36 55 67 87 102 106 34 19 45 13 22
-11z m1737 -143 l39 -27 -34 -18 c-40 -22 -124 -24 -158 -5 -24 14 -24 14 15
20 21 4 50 16 64 26 28 22 15 27 -15 6 -11 -7 -35 -15 -54 -18 l-35 -5 28 23
c38 34 99 32 150 -2z m-991 -173 c70 -140 63 -219 -15 -174 -37 22 -86 95 -94
140 -11 57 1 130 27 168 l24 35 6 -38 c3 -20 27 -79 52 -131z m-609 -68 c20
-29 22 -38 12 -58 -9 -20 -12 -22 -14 -7 -2 9 -15 29 -28 43 -13 14 -21 29
-17 34 5 5 0 3 -10 -5 -18 -13 -18 -14 0 -23 20 -11 43 -37 43 -49 0 -5 -11
-1 -25 8 -15 10 -25 12 -25 5 0 -6 5 -11 10 -11 19 0 60 -48 60 -70 0 -17 -3
-19 -19 -10 -24 12 -31 13 -31 1 0 -5 14 -12 30 -16 21 -5 32 -14 36 -31 4
-14 9 -23 11 -20 3 3 0 28 -7 56 -7 28 -9 62 -5 78 l8 27 7 -25 c10 -31 12
-123 4 -144 -9 -23 -28 -20 -62 9 -37 31 -58 82 -76 188 -8 45 -18 90 -22 100
-11 30 93 -39 120 -80z m2222 -4 l67 -21 -42 -19 c-104 -46 -241 -67 -241 -35
0 22 41 67 74 82 43 18 63 17 142 -7z m-2939 -5 c132 -27 202 -75 242 -164 18
-40 18 -46 4 -54 -37 -20 -181 23 -234 71 -33 30 -99 135 -99 158 0 7 2 7 87
-11z m1082 -257 c1 -35 -24 -95 -51 -124 -20 -22 -23 -22 -40 -6 -12 11 -18
30 -18 61 0 40 5 50 46 91 43 42 47 44 55 26 4 -11 8 -33 8 -48z m1751 -193
l73 -27 -29 -24 c-58 -47 -152 -53 -247 -16 -65 25 -72 35 -43 62 50 47 127
49 246 5z m-610 -73 c54 -53 69 -75 79 -115 7 -27 9 -62 6 -77 l-7 -29 -43 30
c-95 65 -152 161 -138 231 8 40 31 31 103 -40z m-283 -83 c49 -30 119 -105
108 -116 -2 -2 -17 4 -33 12 -17 9 -63 19 -102 22 -78 8 -120 29 -149 77 -14
24 -14 29 -1 38 30 20 116 4 177 -33z m-1715 8 c35 -17 36 -19 20 -36 -28 -29
-58 -40 -112 -40 -59 0 -100 16 -153 58 l-38 31 58 4 c101 7 187 1 225 -17z
m2893 -23 c-33 -78 -130 -152 -210 -158 -40 -3 -45 -2 -45 17 0 28 37 82 70
101 14 8 50 20 80 26 30 7 66 20 80 31 37 29 42 25 25 -17z m-2245 -179 c44
-18 50 -29 20 -39 -11 -4 -18 -10 -15 -15 8 -14 -53 -32 -108 -32 -52 0 -95
16 -161 60 l-28 20 63 10 c101 15 184 14 229 -4z m1519 -66 c-12 -38 -65 -94
-109 -118 -22 -12 -22 -11 -16 26 12 68 35 109 69 123 18 8 35 13 39 13 4 -1
10 8 15 21 l7 22 4 -24 c2 -14 -2 -42 -9 -63z m-748 -24 c23 -25 43 -122 29
-144 -7 -11 -62 26 -86 57 -19 25 -36 90 -29 113 5 16 10 17 34 9 16 -6 39
-21 52 -35z m463 -41 c-46 -103 -58 -124 -97 -159 -34 -31 -57 -43 -57 -29 0
3 16 20 35 37 20 17 33 33 30 36 -3 3 -14 -3 -25 -13 -17 -15 -20 -16 -20 -2
0 21 57 67 75 61 8 -4 15 -1 15 6 0 8 -8 10 -22 7 -20 -5 -18 -2 10 24 19 17
31 33 28 37 -4 3 -23 -10 -43 -29 -21 -20 -33 -27 -30 -16 9 24 0 21 -14 -4
-8 -15 -8 -19 0 -15 17 11 13 -3 -10 -32 -13 -17 -18 -34 -14 -50 4 -15 2 -21
-5 -17 -28 17 6 121 51 154 26 19 101 60 111 61 4 0 -4 -26 -18 -57z m1071
-24 c52 -14 109 -57 148 -109 25 -35 27 -41 11 -37 -10 3 -46 9 -79 12 -122
13 -207 44 -245 90 -24 29 0 28 49 -3 27 -16 52 -27 56 -24 3 3 -13 16 -37 29
-42 22 -43 22 -13 23 40 0 93 -33 106 -68 6 -15 13 -22 16 -15 2 7 0 21 -6 32
-10 19 -10 19 18 5 16 -8 34 -21 41 -29 14 -16 30 -20 30 -7 0 5 -35 28 -77
51 -64 34 -86 42 -120 39 -24 -2 -43 0 -43 4 0 18 89 22 145 7z m-2408 -124
c57 -17 128 -75 175 -143 17 -25 25 -41 17 -37 -39 24 -92 73 -111 103 -11 18
-23 31 -26 28 -3 -3 3 -15 13 -26 14 -15 15 -20 4 -20 -10 -1 -8 -5 5 -15 19
-14 18 -15 -17 -15 -20 0 -37 -4 -37 -9 0 -5 20 -6 44 -4 35 4 50 1 71 -15
l26 -21 -38 5 c-21 3 -50 7 -65 9 -16 3 -28 1 -28 -4 0 -4 30 -11 68 -14 100
-8 135 -28 72 -40 -56 -12 -134 15 -191 65 -39 34 -130 154 -122 162 11 11 88
6 140 -9z m1587 -62 c-19 -31 -34 -62 -34 -68 0 -6 -16 -30 -35 -52 -39 -46
-73 -58 -131 -47 l-38 7 27 23 c22 19 31 21 64 13 49 -11 55 -11 48 1 -3 6
-23 10 -43 10 -33 0 -35 1 -20 16 9 9 37 19 62 21 26 3 49 10 52 14 7 12 -29
11 -60 -1 -30 -11 -33 -4 -9 22 9 10 14 21 10 24 -3 3 -14 -7 -24 -23 -17 -26
-54 -62 -95 -91 -16 -12 -18 -10 -18 12 0 53 103 132 209 162 71 19 72 18 35
-43z m-859 -23 c-27 -28 -56 -48 -63 -45 -7 2 -10 1 -7 -5 14 -23 -97 -65
-142 -54 -25 7 -25 39 1 78 16 25 93 72 103 63 7 -7 -58 -77 -71 -77 -7 0 -21
-9 -31 -20 -22 -24 -17 -25 21 -5 18 10 44 14 69 11 l40 -5 -40 13 -39 13 69
18 c39 10 74 22 80 27 14 12 -5 10 -61 -7 -27 -8 -50 -15 -52 -15 -1 0 7 14
20 30 20 28 26 30 87 30 l65 0 -49 -50z m180 10 c11 -64 -11 -131 -63 -196
-26 -31 -53 -59 -60 -62 -19 -6 43 91 67 106 12 7 21 17 21 24 0 6 -9 3 -20
-7 -11 -10 -20 -14 -20 -9 0 5 -5 2 -10 -6 -8 -12 -10 -9 -10 13 0 15 -5 27
-10 27 -6 0 -8 -15 -4 -39 3 -22 1 -47 -5 -57 -9 -16 -11 -14 -12 16 -1 19 -1
43 0 53 1 9 -3 17 -10 17 -8 0 -10 -18 -5 -62 3 -35 2 -69 -3 -77 -27 -41 -32
97 -6 150 17 33 123 149 136 149 4 0 10 -18 14 -40z m158 -101 c3 -59 1 -66
-23 -86 l-27 -22 8 50 c4 27 11 53 14 59 3 5 2 10 -4 10 -5 0 -15 -32 -22 -70
-12 -70 -29 -103 -29 -58 0 13 -5 30 -10 38 -12 19 -13 4 -1 -36 6 -21 4 -41
-5 -63 -19 -45 -18 -48 6 -18 11 14 20 29 20 34 0 15 59 77 67 69 13 -12 -40
-99 -72 -118 -43 -25 -59 -11 -58 51 0 36 9 64 28 98 30 52 96 136 101 130 2
-2 5 -32 7 -68z m707 25 c0 -19 -9 -60 -21 -92 -12 -31 -24 -73 -28 -92 l-7
-35 -22 35 c-24 39 -30 116 -11 153 19 37 61 76 75 70 8 -3 14 -19 14 -39z
m801 -110 c32 -16 132 -115 151 -148 10 -18 6 -18 -68 -14 -95 6 -155 30 -218
89 -26 23 -45 44 -42 46 10 10 83 -31 101 -57 11 -16 24 -30 29 -30 5 0 -1 11
-14 25 -31 33 -23 32 60 -10 75 -38 80 -39 80 -27 0 5 -18 15 -39 22 -22 7
-52 21 -68 31 l-28 19 42 0 c23 0 45 4 48 10 4 6 -18 7 -58 3 -70 -6 -122 8
-73 21 14 3 26 11 26 17 0 6 -3 9 -7 7 -5 -2 -20 -10 -35 -17 -21 -11 -34 -11
-50 -4 -23 11 -22 11 12 27 41 19 104 15 151 -10z m-463 -59 c35 -39 40 -63
44 -193 l3 -94 -36 41 c-50 56 -72 105 -77 173 -5 68 3 108 22 108 8 0 28 -16
44 -35z m175 -104 c30 -52 17 -109 -36 -160 l-25 -23 -11 38 c-16 56 -14 82
10 131 24 50 38 54 62 14z m-341 -28 c24 -9 46 -19 51 -23 4 -3 -37 -24 -90
-46 -108 -43 -180 -51 -208 -23 -15 15 -15 18 7 42 57 63 154 84 240 50z
m-984 -100 c43 -28 53 -43 28 -43 -21 0 -76 21 -76 30 0 4 -8 10 -17 14 -10 3
-25 9 -33 12 -8 3 -1 -6 17 -21 20 -16 35 -39 39 -60 3 -19 10 -35 14 -35 5 0
4 14 -1 32 -5 17 -7 33 -6 35 4 4 84 -94 90 -110 2 -7 8 -9 12 -5 4 4 -9 28
-30 54 l-38 46 34 -7 c19 -4 35 -8 35 -9 9 -9 54 -109 51 -112 -14 -14 -160
63 -200 104 -32 33 -51 88 -34 96 31 12 76 4 115 -21z m-568 -87 c0 -2 -7 -7
-16 -10 -8 -3 -12 -2 -9 4 6 10 25 14 25 6z m808 -145 c-10 -18 -16 -36 -14
-39 3 -3 8 3 12 12 10 25 22 19 16 -9 -6 -33 6 -95 20 -95 6 0 7 7 3 18 -10
22 -12 192 -3 186 4 -2 16 -29 27 -60 29 -76 27 -155 -3 -219 l-24 -50 -1 36
c-1 19 -17 68 -37 108 -30 62 -35 78 -28 114 3 23 14 53 23 66 l16 25 6 -29
c4 -20 -1 -41 -13 -64z m-379 47 c76 -57 131 -149 131 -218 l0 -41 -30 35
c-17 19 -53 48 -79 66 -62 39 -88 88 -83 157 2 16 7 21 23 18 12 -2 28 -10 38
-17z m-519 -12 c0 -2 -8 -10 -17 -17 -16 -13 -17 -12 -4 4 13 16 21 21 21 13z
m-122 -80 c-7 -8 -15 -12 -17 -10 -2 2 -9 0 -16 -4 -6 -4 -2 1 8 11 23 20 43
23 25 3z"/>
<path d="M2218 5453 c14 -5 41 -53 52 -95 8 -27 8 -27 -16 -12 -32 22 -31 9 3
-20 15 -13 33 -41 40 -62 l13 -39 -6 45 c-8 60 -8 58 1 109 5 31 4 42 -4 37
-6 -4 -11 -22 -12 -39 l0 -32 -15 39 c-16 44 -41 76 -58 75 -6 0 -5 -3 2 -6z"/>
<path d="M520 5242 c0 -22 33 -64 65 -83 32 -20 22 -25 -19 -9 -17 6 -26 6
-26 0 0 -12 44 -24 62 -17 7 2 32 -9 55 -24 57 -40 61 -36 13 9 -22 22 -40 48
-40 60 0 12 -4 22 -10 22 -13 0 -13 -6 0 -31 25 -46 -50 4 -81 55 -10 17 -19
25 -19 18z"/>
<path d="M1470 5212 c0 -6 6 -15 13 -19 6 -4 18 -16 25 -25 12 -14 10 -16 -9
-11 -15 4 -20 3 -15 -5 4 -7 13 -12 21 -12 15 0 55 -46 55 -63 0 -6 -9 -2 -20
8 -29 26 -35 13 -6 -14 24 -23 24 -23 31 -2 3 11 3 26 0 32 -4 6 -8 24 -9 40
-2 30 -26 66 -26 39 0 -8 -12 -3 -30 15 -16 16 -30 24 -30 17z m80 -70 c0 -15
-2 -15 -10 -2 -13 20 -13 33 0 25 6 -3 10 -14 10 -23z"/>
<path d="M2080 5196 c0 -9 4 -16 8 -16 4 0 23 -14 42 -30 l35 -30 -30 5 c-26
4 -25 3 6 -8 36 -12 73 -37 66 -44 -2 -2 -23 4 -47 12 -24 8 -45 13 -48 10 -3
-2 1 -7 9 -9 68 -24 104 -34 107 -31 2 2 -10 21 -27 42 -17 21 -31 44 -31 53
0 8 -5 22 -11 30 -9 12 -10 11 -6 -7 7 -31 -3 -29 -41 8 -23 23 -32 27 -32 15z"/>
<path d="M1813 4948 c-17 -34 -22 -38 -22 -20 -1 12 -5 22 -11 22 -12 0 -13
-27 -1 -34 5 -4 3 -28 -5 -59 -20 -76 -19 -78 36 -28 27 24 47 47 45 50 -3 2
-21 -11 -40 -29 -21 -21 -35 -28 -35 -19 0 20 11 34 38 48 12 6 22 17 22 23 0
6 -9 3 -20 -7 -32 -29 -31 -14 1 38 31 50 34 57 21 57 -4 0 -18 -19 -29 -42z"/>
<path d="M3931 4983 c0 -5 7 -24 15 -43 l14 -35 -5 34 c-3 18 -5 37 -5 42 0 5
-4 9 -10 9 -5 0 -10 -3 -9 -7z"/>
<path d="M3914 4904 c15 -39 18 -64 7 -64 -6 0 -11 5 -11 12 0 6 -3 9 -6 5 -3
-3 -2 -12 2 -19 5 -7 7 -24 6 -38 -2 -14 9 2 23 35 29 69 28 65 16 65 -5 0
-12 -8 -14 -17 -3 -11 -5 -7 -6 10 0 15 -6 27 -12 27 -6 0 -8 -7 -5 -16z"/>
<path d="M2622 4945 c-17 -38 -14 -43 8 -15 21 27 25 40 12 40 -5 0 -14 -11
-20 -25z"/>
<path d="M3520 4974 c0 -8 5 -12 10 -9 6 3 10 10 10 16 0 5 -4 9 -10 9 -5 0
-10 -7 -10 -16z"/>
<path d="M645 4710 c3 -5 16 -10 28 -10 18 0 19 2 7 10 -20 13 -43 13 -35 0z"/>
<path d="M4215 4293 c-16 -14 -25 -23 -19 -19 7 3 17 -1 24 -9 7 -8 18 -15 24
-15 6 0 2 7 -8 15 -19 14 -17 15 20 15 26 0 34 3 25 9 -11 7 -9 10 8 16 13 4
20 9 17 12 -3 3 -17 -2 -30 -11 -14 -9 -31 -16 -38 -16 -9 0 -9 3 2 10 8 5 12
11 10 14 -3 2 -18 -7 -35 -21z"/>
<path d="M4335 4304 l-40 -13 40 5 c22 3 44 10 50 15 12 12 -1 11 -50 -7z"/>
<path d="M4295 4270 l-40 -7 48 -2 c26 0 47 4 47 9 0 6 -3 9 -7 9 -5 -1 -26
-5 -48 -9z"/>
<path d="M1550 4288 c-32 -44 -42 -79 -11 -39 26 34 53 81 47 81 -3 0 -19 -19
-36 -42z"/>
<path d="M2258 4013 c6 -2 18 -2 25 0 6 3 1 5 -13 5 -14 0 -19 -2 -12 -5z"/>
<path d="M2330 4010 c-52 -12 -131 -45 -124 -53 4 -3 18 0 33 7 14 7 37 17 51
21 25 8 25 8 6 -14 -11 -11 -14 -21 -8 -21 12 0 34 34 28 41 -3 2 10 5 27 6
l32 2 -33 -30 c-19 -17 -32 -32 -30 -34 2 -2 17 8 33 23 17 15 41 35 55 45
l24 17 -29 -1 c-17 -1 -46 -5 -65 -9z"/>
<path d="M1876 3937 c3 -21 8 -46 11 -54 5 -12 3 -14 -7 -8 -9 5 -11 4 -6 -4
4 -6 11 -9 16 -6 4 3 10 -5 13 -17 4 -12 9 -20 12 -16 3 3 1 18 -5 33 -7 20
-8 31 0 39 13 13 13 26 0 26 -5 0 -10 -8 -11 -17 0 -10 -7 0 -15 22 l-13 40 5
-38z"/>
<path d="M2665 3835 c40 -34 41 -45 4 -25 -11 7 -19 7 -19 1 0 -5 15 -12 33
-16 17 -4 43 -14 55 -22 13 -8 26 -12 29 -9 3 3 -1 8 -9 11 -10 4 -14 14 -11
26 3 10 0 19 -6 19 -6 0 -8 -7 -4 -17 5 -12 -7 -7 -35 15 -23 19 -44 38 -47
43 -4 5 -12 9 -18 9 -7 -1 6 -16 28 -35z"/>
<path d="M2440 3734 c0 -6 9 -19 20 -29 26 -24 25 -34 -2 -29 -21 4 -20 3 2
-6 14 -6 35 -21 47 -32 13 -12 23 -16 23 -10 0 6 -4 13 -9 16 -5 3 -7 15 -4
25 3 10 -1 22 -7 26 -9 5 -10 1 -6 -16 7 -24 7 -24 -9 -4 -9 11 -25 31 -35 45
-11 14 -20 20 -20 14z"/>
<path d="M3653 3683 c-12 -34 -25 -45 -36 -31 -6 10 -7 8 -3 -4 3 -10 1 -20
-4 -23 -6 -4 -10 -11 -10 -17 0 -6 8 -4 18 5 10 10 21 15 24 12 3 -3 16 -1 29
5 22 10 22 10 -6 5 -26 -4 -28 -3 -11 8 43 28 67 50 61 55 -3 3 -17 -5 -31
-19 l-26 -24 6 23 c9 26 -2 30 -11 5z"/>
<path d="M1921 3532 c-6 -12 -20 -24 -31 -27 -11 -3 -20 -11 -20 -17 0 -6 6
-6 15 2 20 16 19 6 -1 -25 -9 -14 -12 -25 -6 -25 5 0 15 14 23 32 11 28 14 29
21 12 7 -15 7 -14 4 5 -3 14 0 31 6 38 6 8 8 16 5 19 -3 3 -10 -3 -16 -14z"/>
<path d="M2920 3390 c0 -5 5 -10 10 -10 6 0 10 5 10 10 0 6 -4 10 -10 10 -5 0
-10 -4 -10 -10z"/>
<path d="M3921 3378 c-1 -14 -7 -28 -13 -31 -10 -4 -10 -7 0 -18 6 -7 13 -29
13 -48 1 -28 3 -30 6 -11 3 14 12 33 20 43 10 10 12 17 5 17 -7 0 -12 -6 -12
-12 0 -7 -5 -5 -11 6 -7 11 -8 21 -2 25 5 3 6 17 2 31 l-7 25 -1 -27z"/>
<path d="M3170 3208 c1 -7 5 -33 10 -58 11 -60 0 -78 -25 -40 -11 17 -23 30
-27 30 -15 0 -8 -17 18 -41 23 -21 54 -75 54 -95 0 -3 -12 1 -26 11 -14 9 -28
14 -31 11 -3 -3 7 -11 21 -18 15 -6 34 -23 41 -37 14 -25 14 -24 9 19 -4 30
-1 58 9 83 9 20 12 37 7 37 -5 0 -13 -15 -18 -32 -8 -29 -10 -21 -17 55 -4 48
-11 87 -16 87 -5 0 -9 -6 -9 -12z"/>
<path d="M4425 3205 c-35 -29 -47 -31 -38 -7 3 9 -9 0 -27 -21 -17 -20 -35
-35 -38 -33 -4 2 -16 -3 -27 -11 -19 -15 -19 -15 7 -9 15 3 30 2 33 -4 3 -5
11 -10 16 -10 6 0 8 4 5 9 -3 5 6 12 20 15 29 8 77 36 70 43 -2 2 -19 -5 -37
-16 -40 -25 -61 -27 -53 -6 4 8 9 13 14 10 7 -5 100 50 100 60 0 11 -16 3 -45
-20z"/>
<path d="M4320 3169 c0 -5 5 -7 10 -4 6 3 10 8 10 11 0 2 -4 4 -10 4 -5 0 -10
-5 -10 -11z"/>
<path d="M2125 3170 c-3 -5 -1 -10 4 -10 6 0 11 5 11 10 0 6 -2 10 -4 10 -3 0
-8 -4 -11 -10z"/>
<path d="M2077 3115 c-15 -19 -24 -35 -19 -35 10 0 56 60 50 65 -2 2 -16 -11
-31 -30z"/>
<path d="M3784 3052 c5 -8 66 -4 66 4 0 2 -16 4 -36 4 -19 0 -33 -4 -30 -8z"/>
<path d="M3750 3030 c8 -5 22 -9 30 -9 10 0 8 3 -5 9 -27 12 -43 12 -25 0z"/>
<path d="M2806 2933 c4 -16 16 -46 26 -68 10 -22 16 -31 12 -20 -3 11 -11 41
-17 68 -7 26 -15 47 -20 47 -4 0 -4 -12 -1 -27z"/>
<path d="M2780 2895 c0 -16 52 -105 61 -105 6 0 1 11 -10 25 -11 14 -23 39
-26 55 -4 17 -11 30 -16 30 -5 0 -9 -2 -9 -5z"/>
<path d="M2860 2850 c-4 -45 -4 -51 5 -74 7 -16 6 -17 -14 -6 -13 6 -25 9 -28
6 -3 -3 7 -10 22 -16 16 -6 34 -18 41 -28 19 -25 19 7 0 34 -8 11 -16 43 -19
70 -3 42 -4 44 -7 14z"/>
<path d="M2891 2804 c0 -11 3 -14 6 -6 3 7 2 16 -1 19 -3 4 -6 -2 -5 -13z"/>
<path d="M4383 2828 c-17 -27 -44 -42 -52 -30 -5 8 -14 2 -29 -18 -24 -32 -22
-36 9 -19 11 5 17 14 15 18 -3 5 14 5 37 0 56 -11 59 -11 52 1 -3 6 -16 10
-28 11 -21 0 -21 1 3 10 14 6 40 8 58 4 21 -4 32 -2 32 6 0 7 -16 10 -45 7
-33 -2 -44 0 -40 9 6 17 -2 17 -12 1z"/>
<path d="M4330 2760 c0 -5 7 -10 16 -10 8 0 12 5 9 10 -3 6 -10 10 -16 10 -5
0 -9 -4 -9 -10z"/>
<path d="M1590 2786 c0 -9 21 -37 46 -63 26 -25 39 -43 29 -40 -39 16 -68 20
-61 9 3 -5 25 -13 49 -17 23 -4 52 -13 65 -21 72 -45 76 -46 35 -7 -29 28 -43
49 -43 67 0 14 -4 26 -10 26 -13 0 -13 -16 1 -42 11 -21 11 -21 -20 1 -17 12
-30 27 -28 34 1 6 -5 11 -13 12 -8 0 -19 10 -26 23 -16 32 -24 38 -24 18z"/>
<path d="M2577 2550 c-10 -30 -16 -38 -16 -22 -1 12 -5 22 -11 22 -12 0 -13
-6 -1 -29 6 -10 7 -28 4 -41 -6 -22 -7 -23 -14 -4 -5 12 -8 14 -8 4 0 -8 4
-22 9 -30 8 -13 12 -12 25 7 8 12 22 29 30 37 22 22 18 32 -5 11 -24 -22 -25
-18 -4 30 8 20 13 42 11 48 -2 7 -11 -8 -20 -33z"/>
<path d="M4207 2378 c-21 -11 -36 -22 -34 -25 7 -6 77 29 77 39 0 4 -1 7 -2 7
-2 -1 -20 -11 -41 -21z"/>
<path d="M4239 2354 c-10 -12 -24 -15 -56 -10 -23 3 -45 2 -47 -3 -3 -5 18
-12 48 -15 30 -4 62 -14 72 -21 23 -17 34 -19 34 -5 0 6 -7 10 -15 10 -8 0
-15 5 -15 10 0 6 -8 10 -17 10 -15 0 -13 4 7 20 14 11 20 20 14 20 -6 0 -18
-7 -25 -16z"/>
<path d="M4295 2340 c-28 -7 -27 -8 13 -9 23 0 42 4 42 9 0 11 -11 11 -55 0z"/>
<path d="M3690 2356 c0 -4 10 -20 22 -37 14 -19 22 -43 21 -67 -1 -35 -1 -36
6 -7 l7 30 23 -52 c13 -29 28 -53 32 -53 5 0 0 18 -11 40 -24 47 -25 57 -5 40
9 -7 18 -11 20 -8 3 3 -9 15 -27 28 -18 12 -45 38 -60 58 -16 19 -28 32 -28
28z"/>
<path d="M3699 2269 c1 -28 6 -48 9 -44 8 8 3 78 -6 87 -4 4 -5 -16 -3 -43z"/>
<path d="M3333 2239 c9 -5 26 -27 37 -47 10 -20 19 -30 20 -21 0 8 -5 20 -12
27 -9 9 -9 12 -1 12 7 0 15 -5 18 -10 13 -22 105 -58 105 -42 0 5 -16 13 -35
16 -19 4 -37 11 -40 17 -4 6 4 8 19 5 14 -3 26 0 26 5 0 5 -16 9 -35 9 -19 0
-49 9 -67 20 -18 11 -37 20 -43 20 -5 0 -2 -5 8 -11z"/>
<path d="M1645 2210 c22 -24 18 -25 -28 -5 -41 17 -55 19 -41 6 17 -16 79 -31
131 -32 67 -2 85 10 43 27 -42 18 -64 17 -25 -1 l30 -14 -37 -1 c-25 0 -45 7
-58 20 -11 11 -23 20 -27 20 -3 0 2 -9 12 -20z"/>
<path d="M1628 2163 c6 -2 18 -2 25 0 6 3 1 5 -13 5 -14 0 -19 -2 -12 -5z"/>
<path d="M1678 2163 c6 -2 18 -2 25 0 6 3 1 5 -13 5 -14 0 -19 -2 -12 -5z"/>
<path d="M4560 2163 c-14 -9 -38 -28 -53 -42 l-29 -26 8 29 c5 21 4 27 -5 22
-6 -4 -11 -15 -11 -25 0 -10 -9 -30 -21 -45 -28 -36 -9 -33 26 4 21 22 38 30
62 30 18 0 33 5 33 10 0 6 -11 8 -26 4 -36 -9 -24 9 16 26 16 7 30 16 30 21 0
12 -2 12 -30 -8z"/>
<path d="M2280 2016 c0 -3 7 -12 16 -20 20 -20 4 -20 -43 -1 -20 8 -38 13 -41
10 -10 -9 5 -16 67 -28 34 -7 59 -16 55 -20 -15 -14 61 6 79 21 16 14 15 16
-20 29 -46 15 -43 15 -43 4 0 -5 15 -13 33 -17 l32 -7 -26 -9 c-30 -10 -77 4
-85 27 -5 13 -24 22 -24 11z"/>
<path d="M2270 1956 c0 -2 9 -6 20 -9 11 -3 20 -1 20 4 0 5 -9 9 -20 9 -11 0
-20 -2 -20 -4z"/>
<path d="M3887 1968 c-33 -44 -50 -78 -43 -86 7 -7 7 -7 31 43 13 29 20 35 22
23 7 -30 18 -20 20 17 2 19 1 35 -1 35 -3 0 -16 -15 -29 -32z"/>
<path d="M3128 1937 c12 -13 22 -27 22 -31 0 -14 42 -77 47 -72 3 3 -5 19 -17
35 -21 30 -16 43 8 19 9 -9 12 -9 12 -1 0 7 -9 14 -20 18 -11 3 -28 17 -39 31
-10 13 -22 24 -27 24 -4 0 2 -10 14 -23z"/>
<path d="M3130 1884 c0 -14 4 -23 9 -20 5 3 7 15 4 26 -7 28 -13 25 -13 -6z"/>
<path d="M4725 1845 c50 -18 55 -18 31 0 -11 8 -31 15 -45 15 -22 -1 -19 -3
14 -15z"/>
<path d="M2280 1692 c0 -10 65 -42 83 -42 7 0 -8 11 -32 25 -48 28 -51 29 -51
17z"/>
<path d="M3156 1589 c-10 -49 -6 -57 9 -19 17 43 17 50 6 50 -5 0 -11 -14 -15
-31z"/>
<path d="M4040 1599 c-18 -15 -20 -19 -7 -15 14 5 18 1 17 -17 -3 -36 0 -57 8
-57 4 0 7 25 8 55 0 30 0 55 0 55 -1 0 -12 -10 -26 -21z"/>
<path d="M4022 1557 c-13 -15 -28 -75 -17 -64 8 7 35 77 30 77 -1 0 -7 -6 -13
-13z"/>
<path d="M4026 1494 c-4 -20 -5 -38 -2 -41 2 -3 8 11 12 31 3 21 4 39 1 42 -2
3 -8 -11 -11 -32z"/>
<path d="M4381 1370 c-1 -81 9 -123 25 -107 4 4 2 13 -4 19 -14 14 -16 74 -2
83 6 3 7 -1 4 -9 -7 -18 24 -116 36 -116 4 0 0 23 -11 50 -24 63 -24 78 -1 57
10 -10 23 -17 28 -17 5 0 -4 10 -19 23 -15 12 -34 40 -42 62 l-14 40 0 -85z"/>
<path d="M4570 1330 c0 -7 -9 -25 -21 -42 -12 -16 -19 -32 -16 -34 3 -3 13 7
22 23 l16 28 -5 -31 c-3 -18 -8 -43 -12 -58 -4 -16 -2 -26 5 -26 6 0 11 17 12
38 0 34 1 35 10 13 5 -13 12 -22 14 -19 3 3 1 18 -5 34 -6 15 -9 38 -6 50 4
13 2 26 -4 29 -5 3 -10 1 -10 -5z"/>
<path d="M4590 1300 c0 -5 5 -10 11 -10 5 0 7 5 4 10 -3 6 -8 10 -11 10 -2 0
-4 -4 -4 -10z"/>
<path d="M4101 1274 c-19 -13 -42 -24 -52 -24 -10 0 -21 -5 -25 -12 -5 -7 -2
-9 9 -5 9 3 27 -3 40 -14 35 -27 45 -24 17 6 l-23 25 24 1 c39 2 63 -2 77 -13
7 -6 12 -6 12 -1 0 5 -15 17 -32 25 l-33 16 40 -5 c22 -3 45 -10 52 -15 7 -5
14 -5 17 0 6 11 -26 22 -62 22 -13 0 -20 4 -17 10 10 16 -8 10 -44 -16z"/>
<path d="M3550 902 c0 -5 7 -15 15 -22 8 -7 15 -8 15 -2 0 5 -7 15 -15 22 -8
7 -15 8 -15 2z"/>
<path d="M3106 1005 c4 -11 9 -37 10 -58 2 -45 14 -62 15 -21 l0 29 10 -25
c14 -35 58 -90 71 -90 7 0 -2 15 -20 33 -38 39 -41 54 -7 31 14 -9 25 -12 25
-6 0 5 -13 15 -30 22 -16 7 -30 15 -30 19 0 3 -12 24 -26 46 -14 22 -22 31
-18 20z"/>
<path d="M1160 5356 c0 -2 8 -10 18 -17 15 -13 16 -12 3 4 -13 16 -21 21 -21
13z"/>
<path d="M1809 5093 c-13 -16 -12 -17 4 -4 9 7 17 15 17 17 0 8 -8 3 -21 -13z"/>
<path d="M1770 5060 c-9 -6 -10 -10 -3 -10 6 0 15 5 18 10 8 12 4 12 -15 0z"/>
<path d="M790 4986 c0 -2 8 -10 18 -17 15 -13 16 -12 3 4 -13 16 -21 21 -21
13z"/>
<path d="M685 4780 c-3 -6 1 -7 9 -4 18 7 21 14 7 14 -6 0 -13 -4 -16 -10z"/>
<path d="M926 4762 c-3 -5 1 -9 9 -9 8 0 12 4 9 9 -3 4 -7 8 -9 8 -2 0 -6 -4
-9 -8z"/>
<path d="M2166 4688 c3 -5 10 -6 15 -3 13 9 11 12 -6 12 -8 0 -12 -4 -9 -9z"/>
<path d="M3283 4677 c0 -8 6 -14 14 -14 9 0 10 4 2 14 -6 7 -12 13 -14 13 -1
0 -2 -6 -2 -13z"/>
<path d="M2270 4636 c0 -2 8 -10 18 -17 15 -13 16 -12 3 4 -13 16 -21 21 -21
13z"/>
<path d="M2835 4601 c-3 -5 -2 -12 3 -15 5 -3 9 1 9 9 0 17 -3 19 -12 6z"/>
<path d="M1586 4472 c-3 -5 1 -9 9 -9 8 0 12 4 9 9 -3 4 -7 8 -9 8 -2 0 -6 -4
-9 -8z"/>
<path d="M3740 4461 c0 -6 4 -13 10 -16 6 -3 7 1 4 9 -7 18 -14 21 -14 7z"/>
<path d="M3636 4443 c-3 -8 -2 -12 3 -9 4 3 20 -16 34 -42 33 -61 62 -88 116
-107 l44 -15 -6 45 c-2 25 -13 55 -23 66 -45 50 -157 91 -168 62z m72 -14 c17
-6 33 -17 36 -26 10 -24 2 -25 -25 -5 -13 11 -29 17 -35 15 -6 -2 -14 3 -17
12 -7 18 0 19 41 4z m13 -44 c26 -14 30 -14 35 -1 8 21 32 9 50 -26 42 -81
-50 -74 -104 8 -25 38 -23 40 19 19z"/>
<path d="M3756 4371 c-3 -5 0 -12 6 -15 7 -4 3 -4 -9 -2 -13 2 -23 0 -23 -5 0
-5 10 -9 22 -9 12 0 30 -7 40 -17 25 -22 23 -13 -6 26 -13 18 -27 28 -30 22z"/>
<path d="M2805 4149 c-4 -6 -5 -12 -2 -15 2 -3 7 2 10 11 7 17 1 20 -8 4z"/>
<path d="M2163 4055 c0 -8 4 -12 9 -9 5 3 6 10 3 15 -9 13 -12 11 -12 -6z"/>
<path d="M3535 3880 c-3 -6 1 -7 9 -4 18 7 21 14 7 14 -6 0 -13 -4 -16 -10z"/>
<path d="M3906 3772 c-3 -5 1 -9 9 -9 8 0 12 4 9 9 -3 4 -7 8 -9 8 -2 0 -6 -4
-9 -8z"/>
<path d="M1373 3663 c0 -9 4 -10 14 -2 7 6 13 12 13 14 0 1 -6 2 -13 2 -8 0
-14 -6 -14 -14z"/>
<path d="M2993 3575 c0 -8 4 -12 9 -9 5 3 6 10 3 15 -9 13 -12 11 -12 -6z"/>
<path d="M3480 3586 c0 -2 8 -10 18 -17 15 -13 16 -12 3 4 -13 16 -21 21 -21
13z"/>
<path d="M1770 3541 c-22 -23 -51 -63 -64 -89 -13 -26 -46 -72 -72 -102 -89
-103 -114 -199 -78 -291 l17 -41 24 29 c14 15 39 47 56 71 29 39 32 42 44 26
7 -10 13 -13 13 -8 0 6 -4 14 -10 20 -6 6 -4 27 5 58 20 65 19 94 -4 139 l-19
37 40 63 c22 34 54 74 72 89 17 14 28 29 24 34 -5 4 -26 -12 -48 -35z m-72
-249 c3 -38 -1 -70 -12 -95 -16 -39 -95 -147 -108 -147 -13 0 -30 84 -25 122
3 21 15 57 26 80 22 44 88 126 78 97 -3 -8 1 -42 8 -75 l14 -59 -6 80 c-4 66
-3 78 8 68 7 -7 15 -39 17 -71z"/>
<path d="M1635 3299 c-4 -11 -20 -36 -37 -55 -17 -19 -25 -34 -20 -34 6 0 16
8 22 18 8 13 10 4 5 -38 -4 -45 -3 -50 6 -30 6 14 9 40 7 58 -3 21 0 32 9 32
7 0 13 -9 13 -20 0 -11 4 -20 9 -20 6 0 6 12 -1 30 -5 17 -7 42 -4 55 8 30 0
34 -9 4z"/>
<path d="M2655 3449 c-4 -6 -5 -12 -2 -15 2 -3 7 2 10 11 7 17 1 20 -8 4z"/>
<path d="M1569 3343 c-13 -16 -12 -17 4 -4 9 7 17 15 17 17 0 8 -8 3 -21 -13z"/>
<path d="M2647 3324 c-4 -4 -7 -15 -7 -25 0 -10 -5 -21 -12 -25 -8 -5 -9 -2
-4 11 5 15 4 16 -9 5 -12 -10 -13 -15 -4 -21 10 -6 6 -13 -12 -28 -13 -11 -19
-20 -13 -21 5 0 16 6 23 13 16 14 12 5 -26 -55 -13 -21 -19 -38 -13 -38 6 0
24 28 40 63 17 34 30 53 30 42 0 -11 -7 -33 -15 -49 -17 -33 -18 -36 -7 -36
13 0 36 76 28 95 -3 9 -1 25 5 36 11 21 9 45 -4 33z"/>
<path d="M2661 3264 c0 -11 3 -14 6 -6 3 7 2 16 -1 19 -3 4 -6 -2 -5 -13z"/>
<path d="M4489 3133 c-13 -16 -12 -17 4 -4 9 7 17 15 17 17 0 8 -8 3 -21 -13z"/>
<path d="M2453 3105 c0 -8 4 -12 9 -9 5 3 6 10 3 15 -9 13 -12 11 -12 -6z"/>
<path d="M2289 2863 c-12 -16 -12 -17 2 -6 9 7 20 9 24 5 5 -4 5 -1 1 6 -9 16
-11 15 -27 -5z"/>
<path d="M4265 2860 c-3 -6 1 -7 9 -4 18 7 21 14 7 14 -6 0 -13 -4 -16 -10z"/>
<path d="M3779 2841 c-9 -9 -42 -36 -74 -60 -73 -56 -115 -120 -115 -177 0
-25 -5 -44 -12 -47 -7 -2 10 -2 37 0 28 3 65 15 82 27 40 26 90 116 99 177 3
24 7 54 9 66 5 29 -6 34 -26 14z m10 -58 c-14 -74 -17 -80 -54 -102 l-35 -20
19 37 c37 74 30 85 -8 12 l-40 -75 -2 40 -2 40 -6 -47 c-4 -26 -16 -57 -26
-70 l-20 -23 25 20 c14 11 29 26 33 33 4 6 27 22 49 33 l41 21 -20 -33 c-28
-44 -79 -79 -116 -79 -29 0 -30 1 -25 45 4 27 16 59 33 80 25 33 142 134 156
135 4 0 2 -21 -2 -47z"/>
<path d="M3895 2581 c-3 -5 -2 -12 3 -15 5 -3 9 1 9 9 0 17 -3 19 -12 6z"/>
<path d="M3876 2351 c-3 -5 2 -15 12 -22 15 -12 16 -12 5 2 -7 9 -10 19 -6 22
3 4 4 7 0 7 -3 0 -8 -4 -11 -9z"/>
<path d="M3330 2310 c-9 -6 -10 -10 -3 -10 6 0 15 5 18 10 8 12 4 12 -15 0z"/>
<path d="M3740 1940 c-9 -6 -10 -10 -3 -10 6 0 15 5 18 10 8 12 4 12 -15 0z"/>
<path d="M2526 1628 c3 -5 10 -6 15 -3 13 9 11 12 -6 12 -8 0 -12 -4 -9 -9z"/>
<path d="M2766 1468 c3 -5 10 -6 15 -3 13 9 11 12 -6 12 -8 0 -12 -4 -9 -9z"/>
<path d="M3555 1400 c-3 -6 1 -7 9 -4 18 7 21 14 7 14 -6 0 -13 -4 -16 -10z"/>
<path d="M3731 1127 c15 -12 63 -51 107 -87 45 -36 85 -76 91 -90 5 -14 12
-90 15 -170 10 -247 11 -254 40 -304 28 -48 83 -87 148 -104 21 -6 50 -20 64
-31 41 -32 42 -16 1 21 -20 18 -46 53 -58 78 -37 74 -76 123 -124 155 -25 17
-48 39 -52 50 -4 11 -7 81 -8 155 0 88 -4 143 -13 157 -10 18 -3 15 41 -14 51
-35 171 -97 235 -123 18 -7 62 -43 98 -81 37 -37 86 -77 110 -88 49 -24 135
-28 199 -10 l40 11 -83 79 c-102 97 -154 117 -249 99 -32 -7 -62 -12 -68 -12
-18 -2 -166 71 -254 124 -78 47 -155 102 -251 180 -41 33 -67 38 -29 5z m747
-328 c24 -12 71 -49 105 -83 l61 -61 -44 -8 c-80 -15 -147 -2 -206 38 -44 31
-116 105 -101 105 21 0 89 -39 119 -68 21 -20 41 -33 44 -29 4 4 -4 16 -17 27
-21 19 -22 20 -4 16 40 -11 84 -13 97 -5 8 6 -5 9 -34 9 -26 0 -59 5 -73 12
l-26 12 28 12 c15 7 22 13 15 13 -7 1 -22 -4 -33 -10 -15 -8 -33 -6 -72 7 -42
14 -48 19 -32 25 41 16 128 10 173 -12z m-463 -219 c39 -24 70 -64 112 -142
33 -63 33 -64 -18 -47 -74 25 -140 102 -138 161 1 21 2 20 14 -8 14 -32 100
-124 115 -124 18 0 10 19 -9 25 -11 3 -25 13 -33 22 -11 15 -11 16 4 10 10 -3
20 -2 23 3 4 6 -4 10 -16 10 -13 0 -33 10 -46 22 -28 26 -31 48 -3 23 11 -10
20 -15 20 -10 0 4 -17 23 -37 41 -43 37 -37 44 12 14z"/>
<path d="M4009 473 c12 -24 31 -39 31 -25 0 5 -10 17 -21 28 -22 19 -22 19
-10 -3z"/>
<path d="M3555 1101 c-3 -5 -2 -12 3 -15 5 -3 9 1 9 9 0 17 -3 19 -12 6z"/>
</g>
</svg>
